<svg width="314" height="173" viewBox="0 0 314 173" fill="none" xmlns="http://www.w3.org/2000/svg">
<mask id="mask0" mask-type="alpha" maskUnits="userSpaceOnUse" x="0" y="0" width="314" height="173">
<path d="M0 5C0 2.23858 2.23858 0 5 0H309C311.761 0 314 2.23858 314 5V173H0V5Z" fill="#C4C4C4"/>
</mask>
<g mask="url(#mask0)">
<path d="M319.837 0H-5V173H319.837V0Z" fill="#EAADAD"/>
<path d="M45.465 141.248L40.6594 135.961L33.5782 136.925L37.1255 130.714L34.02 124.275L41.0208 125.734L46.1878 120.781L46.9642 127.889L53.2556 131.276L46.75 134.221L45.465 141.248Z" stroke="#F2D6D6" stroke-width="2" stroke-miterlimit="10"/>
<path d="M138.31 154.192C141.179 154.192 143.504 151.867 143.504 148.999C143.504 146.13 141.179 143.805 138.31 143.805C135.442 143.805 133.116 146.13 133.116 148.999C133.116 151.867 135.442 154.192 138.31 154.192Z" stroke="#F2D6D6" stroke-width="2" stroke-miterlimit="10"/>
<path d="M180.998 25.554C185.027 25.554 185.027 30.9485 189.069 30.9485C193.099 30.9485 193.099 25.554 197.141 25.554C201.17 25.554 201.17 30.9485 205.213 30.9485C209.255 30.9485 209.255 25.554 213.285 25.554C217.327 25.554 217.327 30.9485 221.37 30.9485C225.412 30.9485 225.412 25.554 229.455 25.554" stroke="#F2D6D6" stroke-width="2" stroke-miterlimit="10" stroke-linecap="round"/>
<path d="M249.079 155.049L246.964 147.339L244.862 139.642L252.586 141.663L260.31 143.685L254.687 149.374L249.079 155.049Z" stroke="#F2D6D6" stroke-width="2" stroke-miterlimit="10" stroke-linecap="round"/>
<path d="M287.269 30.4128L277.283 39.9169" stroke="#F2D6D6" stroke-width="2" stroke-miterlimit="10" stroke-linecap="round"/>
<path d="M286.827 40.3453L277.711 29.9846" stroke="#F2D6D6" stroke-width="2" stroke-miterlimit="10" stroke-linecap="round"/>
<path d="M276.078 93.7951C276.078 85.1879 265.825 78.2139 253.175 78.2139C240.525 78.2139 230.271 85.1879 230.271 93.7951C230.271 101.024 237.513 107.087 247.312 108.841C245.304 112.535 241.435 114.624 241.435 114.624C253.443 113.432 259.025 110.956 261.34 108.332C269.947 106.097 276.078 100.435 276.078 93.7951Z" stroke="#F2D6D6" stroke-width="2" stroke-miterlimit="10" stroke-linecap="round" stroke-linejoin="round"/>
<path d="M275.114 89.3245C284.833 89.9536 294.43 96.593 294.43 103.366C294.43 109.243 287.041 113.981 279.197 115.614C278.849 115.681 278.662 116.07 278.862 116.364C279.799 117.823 281.044 118.934 281.995 119.657C282.343 119.911 282.115 120.46 281.687 120.407C272.825 119.363 268.595 117.408 266.762 115.333C263.428 114.463 262.25 112.054 260.122 110.14C280.335 104.21 275.114 89.3245 275.114 89.3245Z" fill="#F2D6D6"/>
<path d="M245.679 96.4324C247.106 96.4324 248.262 95.2757 248.262 93.8489C248.262 92.422 247.106 91.2654 245.679 91.2654C244.252 91.2654 243.095 92.422 243.095 93.8489C243.095 95.2757 244.252 96.4324 245.679 96.4324Z" fill="#F2D6D6"/>
<path d="M253.148 96.4324C254.575 96.4324 255.732 95.2757 255.732 93.8489C255.732 92.422 254.575 91.2654 253.148 91.2654C251.721 91.2654 250.565 92.422 250.565 93.8489C250.565 95.2757 251.721 96.4324 253.148 96.4324Z" fill="#F2D6D6"/>
<path d="M260.537 96.4324C261.964 96.4324 263.121 95.2757 263.121 93.8489C263.121 92.422 261.964 91.2654 260.537 91.2654C259.11 91.2654 257.954 92.422 257.954 93.8489C257.954 95.2757 259.11 96.4324 260.537 96.4324Z" fill="#F2D6D6"/>
<path d="M57.2178 48.1627L54.1658 43.7722C53.6438 43.0092 52.7737 42.5674 51.8634 42.5674H30.7136C29.1609 42.5674 27.9026 41.3091 27.9026 39.7564V24.898C27.9026 23.3452 29.1609 22.0869 30.7136 22.0869H54.7013C56.254 22.0869 57.5123 23.3452 57.5123 24.898V48.069C57.5123 48.2297 57.3115 48.2966 57.2178 48.1627Z" stroke="#F2D6D6" stroke-width="2" stroke-miterlimit="10"/>
<path d="M46.7633 26.2632C43.6712 25.353 42.2924 28.4987 42.2924 28.4987C42.2924 28.4987 40.9137 25.353 37.8215 26.2632C34.7293 27.1734 33.8593 33.2239 42.2924 38.431C50.7256 33.2373 49.8555 27.1734 46.7633 26.2632Z" fill="#F2D6D6"/>
<path d="M157.398 123.07C177.736 123.07 194.223 106.583 194.223 86.2456C194.223 65.9079 177.736 49.4209 157.398 49.4209C137.061 49.4209 120.574 65.9079 120.574 86.2456C120.574 106.583 137.061 123.07 157.398 123.07Z" fill="#C61717" stroke="#8C0E0E" stroke-width="3" stroke-miterlimit="10"/>
<path d="M174.613 71.7754L154.975 96.7536L146.06 79.1243" stroke="white" stroke-width="3" stroke-miterlimit="10" stroke-linecap="round" stroke-linejoin="round"/>
<path d="M68.6763 68.0808H97.7104" stroke="#8C0E0E" stroke-width="3" stroke-miterlimit="10" stroke-linecap="round" stroke-linejoin="round"/>
<path d="M80.8174 86.4465H110.802" stroke="#8C0E0E" stroke-width="3" stroke-miterlimit="10" stroke-linecap="round" stroke-linejoin="round"/>
<path d="M68.6763 104.41H97.871" stroke="#8C0E0E" stroke-width="3" stroke-miterlimit="10" stroke-linecap="round" stroke-linejoin="round"/>
</g>
</svg>
