<svg width="313" height="173" viewBox="0 0 313 173" fill="none" xmlns="http://www.w3.org/2000/svg">
<mask id="mask0" mask-type="alpha" maskUnits="userSpaceOnUse" x="0" y="0" width="313" height="173">
<path d="M0 5C0 2.23858 2.23858 0 5 0H308C310.761 0 313 2.23858 313 5V173H0V5Z" fill="#C4C4C4"/>
</mask>
<g mask="url(#mask0)">
<path d="M319 0H-6V173.087H319V0Z" fill="#EAADAD"/>
<path d="M234.921 49.8609L230.113 44.5708L223.028 45.5351L226.577 39.3209L223.47 32.879L230.474 34.3388L235.644 29.3835L236.421 36.4951L242.715 39.8834L236.207 42.8298L234.921 49.8609Z" stroke="#F2D6D6" stroke-width="2" stroke-miterlimit="10"/>
<path d="M24.4281 94.0165C27.298 94.0165 29.6245 91.69 29.6245 88.8201C29.6245 85.9503 27.298 83.6238 24.4281 83.6238C21.5582 83.6238 19.2318 85.9503 19.2318 88.8201C19.2318 91.69 21.5582 94.0165 24.4281 94.0165Z" stroke="#F2D6D6" stroke-width="2" stroke-miterlimit="10"/>
<path d="M64.3115 17.0623C68.3427 17.0623 68.3427 22.4595 72.3873 22.4595C76.4185 22.4595 76.4185 17.0623 80.4631 17.0623C84.4943 17.0623 84.4943 22.4595 88.5389 22.4595C92.5835 22.4595 92.5835 17.0623 96.6147 17.0623C100.659 17.0623 100.659 22.4595 104.704 22.4595C108.748 22.4595 108.748 17.0623 112.793 17.0623" stroke="#F2D6D6" stroke-width="2" stroke-miterlimit="10" stroke-linecap="round"/>
<path d="M250.296 124.19C254.327 124.19 254.327 129.587 258.371 129.587C262.403 129.587 262.403 124.19 266.447 124.19C270.478 124.19 270.478 129.587 274.523 129.587C278.568 129.587 278.568 124.19 282.599 124.19C286.643 124.19 286.643 129.587 290.688 129.587C294.733 129.587 294.733 124.19 298.777 124.19" stroke="#F2D6D6" stroke-width="2" stroke-miterlimit="10" stroke-linecap="round"/>
<path d="M65.2357 77.0077L63.1196 69.307L61.017 61.5928L68.7446 63.6285L76.4721 65.6508L70.8472 71.3292L65.2357 77.0077Z" stroke="#F2D6D6" stroke-width="2" stroke-miterlimit="10" stroke-linecap="round"/>
<path d="M266.755 88.2711L272.233 82.4721L277.724 76.6597L280.014 84.3069L282.304 91.9541L274.536 90.1193L266.755 88.2711Z" stroke="#F2D6D6" stroke-width="2" stroke-miterlimit="10" stroke-linecap="round"/>
<path d="M57.9232 127.324L47.9323 136.833" stroke="#F2D6D6" stroke-width="2" stroke-miterlimit="10" stroke-linecap="round"/>
<path d="M57.4944 137.262L48.374 126.896" stroke="#F2D6D6" stroke-width="2" stroke-miterlimit="10" stroke-linecap="round"/>
<path d="M172.632 39.2673C165.359 35.1423 155.904 26.0755 152.65 22.8613C152.221 22.4327 151.498 22.7407 151.498 23.3434V86.972C148.404 85.03 144.761 83.8783 140.837 83.8783C129.775 83.8783 120.802 92.8514 120.802 103.914C120.802 114.976 129.775 123.949 140.837 123.949C146.409 123.949 151.806 121.579 155.583 117.48C159.574 113.141 161.02 107.275 161.02 101.503C161.02 98.9584 161.02 96.4272 161.02 93.8826C161.02 89.8782 161.02 85.8872 161.02 81.8828C161.02 77.5301 161.02 73.1909 161.02 68.8383C161.02 65.2491 161.02 61.6598 161.02 58.0706C161.02 56.3563 161.02 54.6421 161.02 52.9144C161.02 52.8876 161.02 52.8608 161.02 52.8341C161.02 52.4189 161.395 52.0975 161.797 52.151C181.417 54.6421 187.511 73.6731 187.511 73.6731H192.426C192.506 73.6731 192.573 73.6061 192.573 73.5257C192.52 51.7894 181.538 44.3163 172.632 39.2673Z" fill="#C61717" stroke="#8C0E0E" stroke-width="3" stroke-miterlimit="10"/>
<path d="M189.158 122.851C196.451 122.851 202.363 116.939 202.363 109.646C202.363 102.353 196.451 96.4407 189.158 96.4407C181.865 96.4407 175.953 102.353 175.953 109.646C175.953 116.939 181.865 122.851 189.158 122.851Z" fill="#8C0E0E"/>
<path d="M182.89 110.583L187.578 115.19L196.243 106.351" stroke="#FCFCFC" stroke-width="3" stroke-miterlimit="10" stroke-linecap="round" stroke-linejoin="round"/>
<path d="M183.413 132.347C181.564 131.851 178.498 134.288 176.89 133.351C176.194 132.949 175.899 132.012 175.698 130.98L170.087 145.364L178.27 143.945L183.105 150.413L188.716 136.445C188.676 136.445 188.622 136.458 188.582 136.458C186.627 136.471 185.194 132.829 183.413 132.347Z" fill="#8C0E0E"/>
<path d="M202.069 133.351C200.448 134.288 197.395 131.851 195.546 132.346C193.913 132.775 192.587 135.855 190.899 136.391L196.537 150.427L201.372 143.958L209.555 145.378L203.488 129.842C203.234 131.275 203.02 132.802 202.069 133.351Z" fill="#8C0E0E"/>
<path d="M189.292 132.976C189.412 132.962 189.533 132.935 189.653 132.909L189.493 132.494L189.292 132.976Z" fill="#A32828"/>
<path d="M212.501 109.646C212.501 107.704 208.845 106.284 208.363 104.489C207.868 102.641 210.305 99.5744 209.368 97.9672C208.417 96.3333 204.546 96.9092 203.207 95.5833C201.881 94.2575 202.457 90.3736 200.823 89.4227C199.203 88.4852 196.149 90.9227 194.301 90.4271C192.52 89.945 191.087 86.2888 189.145 86.2888C187.203 86.2888 185.783 89.945 183.988 90.4271C182.14 90.9227 179.073 88.4852 177.466 89.4227C175.832 90.3736 176.408 94.2441 175.082 95.5833C173.756 96.9092 169.873 96.3333 168.922 97.9672C167.984 99.5877 170.422 102.641 169.926 104.489C169.444 106.271 165.788 107.704 165.788 109.646C165.788 111.588 169.444 113.007 169.926 114.802C170.422 116.65 167.984 119.717 168.922 121.324C169.873 122.958 173.743 122.382 175.082 123.708C175.846 124.471 175.98 126.078 176.274 127.498C176.489 128.529 176.77 129.467 177.466 129.869C179.087 130.806 182.14 128.369 183.988 128.864C185.77 129.346 187.203 133.002 189.145 133.002C189.198 133.002 189.238 132.989 189.279 132.989L189.479 132.507L189.64 132.922C191.328 132.386 192.667 129.319 194.287 128.878C196.136 128.382 199.203 130.819 200.81 129.882C201.761 129.333 201.961 127.806 202.229 126.36C202.417 125.302 202.644 124.284 203.207 123.721C204.533 122.395 208.417 122.971 209.368 121.337C210.305 119.717 207.868 116.663 208.363 114.815C208.859 113.007 212.501 111.574 212.501 109.646ZM189.158 126.895C179.636 126.895 171.908 119.168 171.908 109.646C171.908 100.123 179.636 92.3959 189.158 92.3959C198.68 92.3959 206.408 100.123 206.408 109.646C206.408 119.168 198.68 126.895 189.158 126.895Z" fill="#8C0E0E"/>
<path d="M152.743 130.886C137.677 137.516 120.079 130.686 113.449 115.619C106.82 100.552 113.65 82.9541 128.717 76.3247" stroke="#8C0E0E" stroke-width="3" stroke-miterlimit="10" stroke-linecap="round"/>
<path d="M141.132 144.547C118.686 144.547 100.499 126.346 100.499 103.914C100.499 81.4809 118.699 63.2803 141.132 63.2803" stroke="#8C0E0E" stroke-width="3" stroke-miterlimit="10" stroke-linecap="round"/>
</g>
</svg>
