<svg width="313" height="173" viewBox="0 0 313 173" fill="none" xmlns="http://www.w3.org/2000/svg">
<mask id="mask0" mask-type="alpha" maskUnits="userSpaceOnUse" x="0" y="0" width="313" height="173">
<path d="M0 5C0 2.23858 2.23858 0 5 0H308C310.761 0 313 2.23858 313 5V173H0V5Z" fill="#C4C4C4"/>
</mask>
<g mask="url(#mask0)">
<path d="M319 0H-6V173H319V0Z" fill="#EAADAD"/>
<path d="M262.47 46.0076L257.662 40.7202L250.563 41.684L254.113 35.4729L251.005 29.0343L258.01 30.4799L263.179 25.5405L263.956 32.6485L270.264 36.0351L263.742 38.9666L262.47 46.0076Z" stroke="#F2D6D6" stroke-width="2" stroke-miterlimit="10"/>
<path d="M34.8209 77.1834C37.6907 77.1834 40.0172 74.8581 40.0172 71.9896C40.0172 69.1212 37.6907 66.7959 34.8209 66.7959C31.951 66.7959 29.6245 69.1212 29.6245 71.9896C29.6245 74.8581 31.951 77.1834 34.8209 77.1834Z" stroke="#F2D6D6" stroke-width="2" stroke-miterlimit="10"/>
<path d="M253.363 100.622C256.232 100.622 258.559 98.2968 258.559 95.4284C258.559 92.5599 256.232 90.2346 253.363 90.2346C250.493 90.2346 248.166 92.5599 248.166 95.4284C248.166 98.2968 250.493 100.622 253.363 100.622Z" stroke="#F2D6D6" stroke-width="2" stroke-miterlimit="10"/>
<path d="M243.09 129.148C247.122 129.148 247.122 134.542 251.166 134.542C255.197 134.542 255.197 129.148 259.242 129.148C263.273 129.148 263.273 134.542 267.318 134.542C271.362 134.542 271.362 129.148 275.393 129.148C279.438 129.148 279.438 134.542 283.483 134.542C287.527 134.542 287.527 129.148 291.572 129.148" stroke="#F2D6D6" stroke-width="2" stroke-miterlimit="10" stroke-linecap="round"/>
<path d="M69.3874 136.992L67.2714 129.295L65.1687 121.598L72.8963 123.619L80.6238 125.64L74.9989 131.316L69.3874 136.992Z" stroke="#F2D6D6" stroke-width="2" stroke-miterlimit="10" stroke-linecap="round"/>
<path d="M101.958 32.9966L91.9674 42.5006" stroke="#F2D6D6" stroke-width="2" stroke-miterlimit="10" stroke-linecap="round"/>
<path d="M101.516 42.9288L92.4094 32.5681" stroke="#F2D6D6" stroke-width="2" stroke-miterlimit="10" stroke-linecap="round"/>
<path d="M202.671 81.0652H185.609L180.801 72.8997C179.582 70.8249 177.399 69.5667 175.056 69.5667H148.243C145.9 69.5667 143.717 70.8383 142.498 72.8997L137.69 81.0652H119.288C115.405 81.0652 112.244 84.2109 112.244 88.1062V131.343C112.244 135.225 115.391 138.384 119.288 138.384H202.671C206.555 138.384 209.716 135.238 209.716 131.343V88.1062C209.716 84.2109 206.555 81.0652 202.671 81.0652Z" fill="#C61717" stroke="#8C0E0E" stroke-width="3" stroke-miterlimit="10" stroke-linecap="round" stroke-linejoin="round"/>
<path d="M171.975 58.4831H149.73C144.828 58.4831 140.837 54.5075 140.837 49.5948V28.5655C140.837 23.6663 144.815 19.6772 149.73 19.6772H171.975C176.877 19.6772 180.868 23.6529 180.868 28.5655V49.6082C180.868 54.5075 176.89 58.4831 171.975 58.4831Z" fill="#C61717" stroke="#8C0E0E" stroke-width="3" stroke-miterlimit="10" stroke-linecap="round" stroke-linejoin="round"/>
<path d="M170.301 50.3845H151.431C150.4 50.3845 149.569 49.5546 149.569 48.5239V29.6497C149.569 28.619 150.4 27.7891 151.431 27.7891H170.301C171.332 27.7891 172.163 28.619 172.163 29.6497V48.5105C172.163 49.5412 171.319 50.3845 170.301 50.3845Z" fill="white" stroke="#8C0E0E" stroke-width="3" stroke-miterlimit="10" stroke-linecap="round" stroke-linejoin="round"/>
<path d="M174.306 58.3894H148.471V67.8666H174.306V58.3894Z" fill="#C61717" stroke="#8C0E0E" stroke-width="3" stroke-miterlimit="10" stroke-linecap="round" stroke-linejoin="round"/>
<path d="M160.98 132.722C174.819 132.722 186.037 121.508 186.037 107.676C186.037 93.8444 174.819 82.6313 160.98 82.6313C147.141 82.6313 135.922 93.8444 135.922 107.676C135.922 121.508 147.141 132.722 160.98 132.722Z" stroke="white" stroke-width="3" stroke-miterlimit="10" stroke-linecap="round" stroke-linejoin="round"/>
<path d="M160.98 125.774C170.98 125.774 179.087 117.672 179.087 107.676C179.087 97.6813 170.98 89.5786 160.98 89.5786C150.98 89.5786 142.873 97.6813 142.873 107.676C142.873 117.672 150.98 125.774 160.98 125.774Z" stroke="#8C0E0E" stroke-width="3" stroke-miterlimit="10" stroke-linecap="round" stroke-linejoin="round"/>
<path d="M202.671 87.8252H191.756V96.3253H202.671V87.8252Z" fill="white" stroke="#8C0E0E" stroke-width="3" stroke-miterlimit="10" stroke-linecap="round" stroke-linejoin="round"/>
<path d="M158.824 95.4285C158.824 95.4285 150.641 97.182 149.556 104.758" stroke="white" stroke-width="3" stroke-miterlimit="10" stroke-linecap="round" stroke-linejoin="round"/>
<path d="M170.007 116.939C172.078 116.939 173.756 115.261 173.756 113.191C173.756 111.121 172.078 109.443 170.007 109.443C167.936 109.443 166.257 111.121 166.257 113.191C166.257 115.261 167.936 116.939 170.007 116.939Z" fill="white"/>
</g>
</svg>
