<svg width="314" height="173" viewBox="0 0 314 173" fill="none" xmlns="http://www.w3.org/2000/svg">
<mask id="mask0" mask-type="alpha" maskUnits="userSpaceOnUse" x="0" y="0" width="314" height="173">
<path d="M0 5C0 2.23858 2.23858 0 5 0H309C311.761 0 314 2.23858 314 5V173H0V5Z" fill="#C4C4C4"/>
</mask>
<g mask="url(#mask0)">
<path d="M319 0H-5V173H319V0Z" fill="#EAADAD"/>
<path d="M211.758 30.1319C214.619 30.1319 216.939 27.8066 216.939 24.9381C216.939 22.0697 214.619 19.7444 211.758 19.7444C208.897 19.7444 206.578 22.0697 206.578 24.9381C206.578 27.8066 208.897 30.1319 211.758 30.1319Z" stroke="#F2D6D6" stroke-width="2" stroke-miterlimit="10"/>
<path d="M86.8447 132.026C89.7058 132.026 92.0251 129.7 92.0251 126.832C92.0251 123.964 89.7058 121.638 86.8447 121.638C83.9837 121.638 81.6644 123.964 81.6644 126.832C81.6644 129.7 83.9837 132.026 86.8447 132.026Z" stroke="#F2D6D6" stroke-width="2" stroke-miterlimit="10"/>
<path d="M28.5361 37.7349C32.5549 37.7349 32.5549 43.1294 36.5871 43.1294C40.6059 43.1294 40.6059 37.7349 44.638 37.7349C48.6568 37.7349 48.6568 43.1294 52.6889 43.1294C56.7211 43.1294 56.7211 37.7349 60.7399 37.7349C64.772 37.7349 64.772 43.1294 68.8041 43.1294C72.8363 43.1294 72.8363 37.7349 76.8684 37.7349" stroke="#F2D6D6" stroke-width="2" stroke-miterlimit="10" stroke-linecap="round"/>
<path d="M240.544 143.912L238.448 136.215L236.338 128.505L244.042 130.526L251.746 132.561L246.152 138.237L240.544 143.912Z" stroke="#F2D6D6" stroke-width="2" stroke-miterlimit="10" stroke-linecap="round"/>
<path d="M55.6691 84.0237L45.7089 93.5277" stroke="#F2D6D6" stroke-width="2" stroke-miterlimit="10" stroke-linecap="round"/>
<path d="M55.2285 93.9559L46.1495 83.5952" stroke="#F2D6D6" stroke-width="2" stroke-miterlimit="10" stroke-linecap="round"/>
<path d="M282.374 51.9777C282.374 43.3706 272.147 36.3965 259.53 36.3965C246.913 36.3965 236.685 43.3706 236.685 51.9777C236.685 59.2061 243.909 65.27 253.682 67.0235C251.679 70.7181 247.821 72.8063 247.821 72.8063C259.797 71.6149 265.364 69.1385 267.674 66.5149C276.246 64.2794 282.374 58.6172 282.374 51.9777Z" stroke="#F2D6D6" stroke-width="2" stroke-miterlimit="10" stroke-linecap="round" stroke-linejoin="round"/>
<path d="M281.413 47.5068C291.106 48.136 300.679 54.7754 300.679 61.5487C300.679 67.4251 293.309 72.1638 285.485 73.7968C285.138 73.8638 284.951 74.252 285.151 74.5464C286.086 76.0055 287.328 77.1166 288.276 77.8394C288.623 78.0937 288.396 78.6425 287.968 78.589C279.13 77.5449 274.911 75.5906 273.082 73.5157C269.757 72.6456 268.582 70.2362 266.459 68.322C286.62 62.392 281.413 47.5068 281.413 47.5068Z" fill="#F2D6D6"/>
<path d="M252.053 54.6147C253.476 54.6147 254.63 53.4581 254.63 52.0312C254.63 50.6044 253.476 49.4478 252.053 49.4478C250.63 49.4478 249.476 50.6044 249.476 52.0312C249.476 53.4581 250.63 54.6147 252.053 54.6147Z" fill="#F2D6D6"/>
<path d="M259.503 54.6147C260.926 54.6147 262.08 53.4581 262.08 52.0312C262.08 50.6044 260.926 49.4478 259.503 49.4478C258.08 49.4478 256.926 50.6044 256.926 52.0312C256.926 53.4581 258.08 54.6147 259.503 54.6147Z" fill="#F2D6D6"/>
<path d="M266.873 54.6147C268.296 54.6147 269.45 53.4581 269.45 52.0312C269.45 50.6044 268.296 49.4478 266.873 49.4478C265.45 49.4478 264.296 50.6044 264.296 52.0312C264.296 53.4581 265.45 54.6147 266.873 54.6147Z" fill="#F2D6D6"/>
<path d="M187.034 48.8051V93.7016C187.034 109.617 174.163 122.508 158.302 122.508H155.765C139.903 122.508 127.033 109.617 127.033 93.7016V48.8051C127.033 43.8791 128.274 39.2341 130.451 35.1648H130.464C135.311 26.1293 144.817 19.9985 155.765 19.9985H158.302C169.25 19.9985 178.756 26.1293 183.603 35.1648H183.616C185.792 39.2341 187.034 43.8791 187.034 48.8051Z" fill="#C61717" stroke="#8C0E0E" stroke-width="3" stroke-miterlimit="10"/>
<path d="M185.616 35.1648H185.603" stroke="#8C0E0E" stroke-width="4" stroke-miterlimit="10"/>
<path d="M132.464 35.1648H132.451" stroke="#8C0E0E" stroke-width="4" stroke-miterlimit="10"/>
<path d="M117.807 78.9636V96.3386C117.807 103.232 119.863 109.658 123.401 115.012C129.449 124.168 139.81 130.218 151.599 130.218H157.033H162.467C181.133 130.218 196.26 115.052 196.26 96.3386V78.9636" stroke="#8C0E0E" stroke-width="3" stroke-miterlimit="10" stroke-linecap="round"/>
<path d="M157.033 151.957V141.784V130.219" stroke="#8C0E0E" stroke-width="7" stroke-miterlimit="10"/>
<path d="M130.451 153.001H183.616" stroke="#8C0E0E" stroke-width="3" stroke-miterlimit="10" stroke-linecap="round"/>
<path d="M115.724 74.8274V83.0999" stroke="#8C0E0E" stroke-width="7" stroke-miterlimit="10" stroke-linecap="round"/>
<path d="M198.276 74.8274V83.0999" stroke="#8C0E0E" stroke-width="7" stroke-miterlimit="10" stroke-linecap="round"/>
<path d="M127.033 69.2722H187.021" stroke="#8C0E0E" stroke-width="3" stroke-miterlimit="10" stroke-linecap="round"/>
<path d="M139.26 42.6075C140.862 36.5035 144.921 32.3405 152.024 30.4263" stroke="#FCFCFC" stroke-width="3" stroke-miterlimit="10" stroke-linecap="round" stroke-linejoin="round"/>
<path d="M138.779 61.4281V50.0366" stroke="#FCFCFC" stroke-width="3" stroke-miterlimit="10" stroke-linecap="round" stroke-linejoin="round"/>
</g>
</svg>
