<svg width="314" height="173" viewBox="0 0 314 173" fill="none" xmlns="http://www.w3.org/2000/svg">
<mask id="mask0" mask-type="alpha" maskUnits="userSpaceOnUse" x="0" y="0" width="314" height="173">
<path d="M0 5C0 2.23858 2.23858 0 5 0H309C311.761 0 314 2.23858 314 5V173H0V5Z" fill="#C4C4C4"/>
</mask>
<g mask="url(#mask0)">
<path d="M319.837 0H-5V173H319.837V0Z" fill="#EAADAD"/>
<path d="M276.266 41.9918L271.447 36.7044L264.365 37.6682L267.913 31.4571L264.807 25.0184L271.808 26.4775L276.975 21.5381L277.751 28.6326L284.056 32.0193L277.537 34.9642L276.266 41.9918Z" stroke="#F2D6D6" stroke-width="2" stroke-miterlimit="10"/>
<path d="M198.721 36.9588C201.589 36.9588 203.914 34.6335 203.914 31.765C203.914 28.8966 201.589 26.5713 198.721 26.5713C195.852 26.5713 193.527 28.8966 193.527 31.765C193.527 34.6335 195.852 36.9588 198.721 36.9588Z" stroke="#F2D6D6" stroke-width="2" stroke-miterlimit="10"/>
<path d="M21.9994 86.8348C24.8679 86.8348 27.1932 84.5094 27.1932 81.641C27.1932 78.7726 24.8679 76.4473 21.9994 76.4473C19.131 76.4473 16.8057 78.7726 16.8057 81.641C16.8057 84.5094 19.131 86.8348 21.9994 86.8348Z" stroke="#F2D6D6" stroke-width="2" stroke-miterlimit="10"/>
<path d="M232.212 143.35C236.242 143.35 236.242 148.745 240.284 148.745C244.313 148.745 244.313 143.35 248.356 143.35C252.385 143.35 252.385 148.745 256.428 148.745C260.47 148.745 260.47 143.35 264.499 143.35C268.542 143.35 268.542 148.745 272.584 148.745C276.627 148.745 276.627 143.35 280.67 143.35" stroke="#F2D6D6" stroke-width="2" stroke-miterlimit="10" stroke-linecap="round"/>
<path d="M239.775 112.455L237.674 104.758L235.559 97.0615L243.283 99.0828L251.006 101.104L245.398 106.78L239.775 112.455Z" stroke="#F2D6D6" stroke-width="2" stroke-miterlimit="10" stroke-linecap="round"/>
<path d="M61.6754 119.349L51.6895 128.867" stroke="#F2D6D6" stroke-width="2" stroke-miterlimit="10" stroke-linecap="round"/>
<path d="M61.2337 129.282L52.1312 118.934" stroke="#F2D6D6" stroke-width="2" stroke-miterlimit="10" stroke-linecap="round"/>
<path d="M85.9977 57.827L82.9591 53.4365C82.437 52.6735 81.5669 52.2317 80.6567 52.2317H59.4935C57.9407 52.2317 56.6825 50.9734 56.6825 49.4207V34.5623C56.6825 33.0095 57.9407 31.7512 59.4935 31.7512H83.4811C85.0339 31.7512 86.2922 33.0095 86.2922 34.5623V57.7333C86.2922 57.894 86.0914 57.9609 85.9977 57.827Z" stroke="#F2D6D6" stroke-width="2" stroke-miterlimit="10"/>
<path d="M75.5433 35.9414C72.4511 35.0312 71.0724 38.1769 71.0724 38.1769C71.0724 38.1769 69.6936 35.0312 66.6015 35.9414C63.5093 36.8517 62.6392 42.9021 71.0724 48.1093C79.5055 42.9021 78.6354 36.8517 75.5433 35.9414Z" fill="#F2D6D6"/>
<path d="M163.061 145.599C187.309 145.599 206.966 125.942 206.966 101.693C206.966 77.4445 187.309 57.7871 163.061 57.7871C138.812 57.7871 119.155 77.4445 119.155 101.693C119.155 125.942 138.812 145.599 163.061 145.599Z" fill="#C61717" stroke="#8C0E0E" stroke-width="4" stroke-miterlimit="10" stroke-linecap="round"/>
<path d="M154.159 108.359C154.547 113.714 157.532 117.877 163.047 117.877C168.589 117.877 171.574 113.714 171.962 108.359" stroke="white" stroke-width="4" stroke-miterlimit="10" stroke-linecap="round"/>
<path d="M139.421 103.835C141.809 103.835 143.745 101.899 143.745 99.5109C143.745 97.123 141.809 95.1873 139.421 95.1873C137.033 95.1873 135.097 97.123 135.097 99.5109C135.097 101.899 137.033 103.835 139.421 103.835Z" fill="white"/>
<path d="M186.459 103.835C188.847 103.835 190.783 101.899 190.783 99.5109C190.783 97.123 188.847 95.1873 186.459 95.1873C184.071 95.1873 182.136 97.123 182.136 99.5109C182.136 101.899 184.071 103.835 186.459 103.835Z" fill="white"/>
<path d="M153.476 147.245C154.467 147.245 155.27 146.442 155.27 145.451C155.27 144.461 154.467 143.658 153.476 143.658C152.486 143.658 151.683 144.461 151.683 145.451C151.683 146.442 152.486 147.245 153.476 147.245Z" fill="#8C0E0E"/>
<path d="M143.651 149.534C144.642 149.534 145.445 148.731 145.445 147.74C145.445 146.749 144.642 145.946 143.651 145.946C142.66 145.946 141.857 146.749 141.857 147.74C141.857 148.731 142.66 149.534 143.651 149.534Z" fill="#8C0E0E"/>
<path d="M133.504 149.628C134.495 149.628 135.298 148.825 135.298 147.834C135.298 146.843 134.495 146.04 133.504 146.04C132.514 146.04 131.711 146.843 131.711 147.834C131.711 148.825 132.514 149.628 133.504 149.628Z" fill="#8C0E0E"/>
<path d="M123.438 147.446C124.429 147.446 125.232 146.643 125.232 145.652C125.232 144.662 124.429 143.859 123.438 143.859C122.448 143.859 121.644 144.662 121.644 145.652C121.644 146.643 122.448 147.446 123.438 147.446Z" fill="#8C0E0E"/>
<path d="M113.827 142.895C114.818 142.895 115.621 142.092 115.621 141.101C115.621 140.11 114.818 139.307 113.827 139.307C112.836 139.307 112.033 140.11 112.033 141.101C112.033 142.092 112.836 142.895 113.827 142.895Z" fill="#8C0E0E"/>
<path d="M105.501 136.269C106.492 136.269 107.295 135.466 107.295 134.475C107.295 133.484 106.492 132.681 105.501 132.681C104.51 132.681 103.707 133.484 103.707 134.475C103.707 135.466 104.51 136.269 105.501 136.269Z" fill="#8C0E0E"/>
<path d="M99.1025 128.21C100.093 128.21 100.896 127.407 100.896 126.417C100.896 125.426 100.093 124.623 99.1025 124.623C98.1118 124.623 97.3088 125.426 97.3088 126.417C97.3088 127.407 98.1118 128.21 99.1025 128.21Z" fill="#8C0E0E"/>
<path d="M94.7119 119.067C95.7026 119.067 96.5056 118.264 96.5056 117.274C96.5056 116.283 95.7026 115.48 94.7119 115.48C93.7213 115.48 92.9182 116.283 92.9182 117.274C92.9182 118.264 93.7213 119.067 94.7119 119.067Z" fill="#8C0E0E"/>
<path d="M92.4363 109.243C93.427 109.243 94.23 108.44 94.23 107.449C94.23 106.458 93.427 105.655 92.4363 105.655C91.4457 105.655 90.6426 106.458 90.6426 107.449C90.6426 108.44 91.4457 109.243 92.4363 109.243Z" fill="#8C0E0E"/>
<path d="M92.3426 99.0962C93.3333 99.0962 94.1364 98.2932 94.1364 97.3025C94.1364 96.3119 93.3333 95.5088 92.3426 95.5088C91.352 95.5088 90.5489 96.3119 90.5489 97.3025C90.5489 98.2932 91.352 99.0962 92.3426 99.0962Z" fill="#8C0E0E"/>
<path d="M94.5245 89.0296C95.5151 89.0296 96.3182 88.2265 96.3182 87.2359C96.3182 86.2452 95.5151 85.4421 94.5245 85.4421C93.5338 85.4421 92.7308 86.2452 92.7308 87.2359C92.7308 88.2265 93.5338 89.0296 94.5245 89.0296Z" fill="#8C0E0E"/>
<path d="M99.0757 79.4187C100.066 79.4187 100.869 78.6157 100.869 77.625C100.869 76.6344 100.066 75.8313 99.0757 75.8313C98.0851 75.8313 97.282 76.6344 97.282 77.625C97.282 78.6157 98.0851 79.4187 99.0757 79.4187Z" fill="#8C0E0E"/>
<path d="M105.688 71.0926C106.679 71.0926 107.482 70.2895 107.482 69.2988C107.482 68.3082 106.679 67.5051 105.688 67.5051C104.698 67.5051 103.895 68.3082 103.895 69.2988C103.895 70.2895 104.698 71.0926 105.688 71.0926Z" fill="#8C0E0E"/>
<path d="M132.728 58.0281C133.719 58.0281 134.522 57.225 134.522 56.2344C134.522 55.2437 133.719 54.4407 132.728 54.4407C131.737 54.4407 130.934 55.2437 130.934 56.2344C130.934 57.225 131.737 58.0281 132.728 58.0281Z" fill="#8C0E0E"/>
<path d="M142.875 57.9341C143.865 57.9341 144.668 57.131 144.668 56.1404C144.668 55.1498 143.865 54.3467 142.875 54.3467C141.884 54.3467 141.081 55.1498 141.081 56.1404C141.081 57.131 141.884 57.9341 142.875 57.9341Z" fill="#8C0E0E"/>
<path d="M152.941 60.116C153.931 60.116 154.735 59.3129 154.735 58.3223C154.735 57.3316 153.931 56.5286 152.941 56.5286C151.95 56.5286 151.147 57.3316 151.147 58.3223C151.147 59.3129 151.95 60.116 152.941 60.116Z" fill="#8C0E0E"/>
<path d="M118.994 73.5423C118.258 74.7872 116.451 74.7605 115.728 73.5156L111.712 66.4746L107.696 59.4336C106.973 58.1753 107.884 56.6091 109.329 56.6091L117.629 56.569L125.807 56.5288C127.28 56.5288 128.19 58.1217 127.441 59.3934L123.237 66.421L118.994 73.5423Z" fill="white"/>
<path d="M127.789 58.7373L123.572 54.0388L117.174 59.8617L111.806 54.2129L107.482 58.7373V15.6479H127.789V58.7373Z" fill="#C61717" stroke="#8C0E0E" stroke-width="3" stroke-miterlimit="10" stroke-linejoin="round"/>
<path d="M117.816 79.7533L115.152 75.3092L112.488 70.8517L117.642 70.7981L122.782 70.7312L120.293 75.2423L117.816 79.7533Z" fill="#C61717"/>
<path d="M127.789 59.3394L122.715 70.4898L117.642 81.6403L112.555 70.4898L107.482 59.3394" stroke="#8C0E0E" stroke-width="3" stroke-miterlimit="10" stroke-linecap="round" stroke-linejoin="round"/>
<path d="M112.14 69.5664H123.13" stroke="#8C0E0E" stroke-width="3" stroke-miterlimit="10" stroke-linejoin="round"/>
</g>
</svg>
