<svg width="314" height="173" viewBox="0 0 314 173" fill="none" xmlns="http://www.w3.org/2000/svg">
<mask id="mask0" mask-type="alpha" maskUnits="userSpaceOnUse" x="0" y="0" width="314" height="173">
<path d="M0 5C0 2.23858 2.23858 0 5 0H309C311.761 0 314 2.23858 314 5V173H0V5Z" fill="#C4C4C4"/>
</mask>
<g mask="url(#mask0)">
<path d="M-6 0H318.837V173H-6" fill="#EAADAD"/>
<path d="M246.767 61.7093L241.961 56.4219L234.88 57.3856L238.427 51.1746L235.322 44.7359L242.323 46.195L247.49 41.2422L248.266 48.3501L254.557 51.7368L248.052 54.6817L246.767 61.7093Z" stroke="#F2D6D6" stroke-width="2" stroke-miterlimit="10"/>
<path d="M38.2138 56.6763C41.0823 56.6763 43.4076 54.351 43.4076 51.4826C43.4076 48.6141 41.0823 46.2888 38.2138 46.2888C35.3454 46.2888 33.0201 48.6141 33.0201 51.4826C33.0201 54.351 35.3454 56.6763 38.2138 56.6763Z" stroke="#F2D6D6" stroke-width="2" stroke-miterlimit="10"/>
<path d="M218.616 110.849C221.485 110.849 223.81 108.524 223.81 105.655C223.81 102.787 221.485 100.462 218.616 100.462C215.748 100.462 213.422 102.787 213.422 105.655C213.422 108.524 215.748 110.849 218.616 110.849Z" stroke="#F2D6D6" stroke-width="2" stroke-miterlimit="10"/>
<path d="M46.3926 129.148C50.4217 129.148 50.4217 134.542 54.4643 134.542C58.4935 134.542 58.4935 129.148 62.536 129.148C66.5652 129.148 66.5652 134.542 70.6078 134.542C74.6503 134.542 74.6503 129.148 78.6795 129.148C82.722 129.148 82.722 134.542 86.7646 134.542C90.8072 134.542 90.8071 129.148 94.8497 129.148" stroke="#F2D6D6" stroke-width="2" stroke-miterlimit="10" stroke-linecap="round"/>
<path d="M247.329 147.005L245.227 139.308L243.112 131.611L250.836 133.632L258.56 135.653L252.951 141.329L247.329 147.005Z" stroke="#F2D6D6" stroke-width="2" stroke-miterlimit="10" stroke-linecap="round"/>
<path d="M108.985 39.4617L106.884 31.7648L104.769 24.0679L112.492 26.0891L120.216 28.1104L114.607 33.7861L108.985 39.4617Z" stroke="#F2D6D6" stroke-width="2" stroke-miterlimit="10" stroke-linecap="round"/>
<path d="M88.304 87.3164L78.3181 96.8204" stroke="#F2D6D6" stroke-width="2" stroke-miterlimit="10" stroke-linecap="round"/>
<path d="M87.8622 97.2489L78.7598 86.8882" stroke="#F2D6D6" stroke-width="2" stroke-miterlimit="10" stroke-linecap="round"/>
<path d="M289.843 97.2893L279.857 106.793" stroke="#F2D6D6" stroke-width="2" stroke-miterlimit="10" stroke-linecap="round"/>
<path d="M289.401 107.222L280.299 96.8608" stroke="#F2D6D6" stroke-width="2" stroke-miterlimit="10" stroke-linecap="round"/>
<path d="M165.608 113.138C171.744 113.138 176.718 108.164 176.718 102.028C176.718 95.8915 171.744 90.9172 165.608 90.9172C159.472 90.9172 154.497 95.8915 154.497 102.028C154.497 108.164 159.472 113.138 165.608 113.138Z" fill="#C61717"/>
<path d="M153.159 117.636C153.159 117.636 154.056 112.951 155.997 110.554C162.248 102.817 167.294 107.944 168.486 98.0519V85.844C168.486 82.6046 171.283 79.9675 174.737 79.9675C178.191 79.9675 180.988 82.5912 180.988 85.844V107.181C180.988 119.322 174.135 130.285 163.573 135.037C155.956 138.478 147.229 137.848 140.121 133.337C130.59 127.314 124.767 116.431 124.767 104.705V104.129V102.817V62.6595C124.767 59.5941 127.565 57.1043 131.018 57.1043C134.472 57.1043 137.27 59.5941 137.27 62.6595V85.5495V48.109C137.27 45.0436 140.067 42.5538 143.521 42.5538C146.974 42.5538 149.772 45.0436 149.772 48.109V81.4801V41.3357C149.772 38.2703 152.57 35.7805 156.023 35.7805C159.477 35.7805 162.275 38.2703 162.275 41.3357V81.4801V51.1074C162.275 48.042 165.072 45.5523 168.526 45.5523C171.979 45.5523 174.777 48.042 174.777 51.1074V79.9675" fill="#C61717"/>
<path d="M153.159 117.636C153.159 117.636 154.056 112.951 155.997 110.554C162.248 102.817 167.294 107.944 168.486 98.0519V85.844C168.486 82.6046 171.283 79.9675 174.737 79.9675C178.191 79.9675 180.988 82.5912 180.988 85.844V107.181C180.988 119.322 174.135 130.285 163.573 135.037C155.956 138.478 147.229 137.848 140.121 133.337C130.59 127.314 124.767 116.431 124.767 104.705V104.129V102.817V62.6595C124.767 59.5941 127.565 57.1043 131.018 57.1043C134.472 57.1043 137.27 59.5941 137.27 62.6595V85.5495V48.109C137.27 45.0436 140.067 42.5538 143.521 42.5538C146.974 42.5538 149.772 45.0436 149.772 48.109V81.4801V41.3357C149.772 38.2703 152.57 35.7805 156.023 35.7805C159.477 35.7805 162.275 38.2703 162.275 41.3357V81.4801V51.1074C162.275 48.042 165.072 45.5523 168.526 45.5523C171.979 45.5523 174.777 48.042 174.777 51.1074V79.9675" stroke="#8C0E0E" stroke-width="3" stroke-miterlimit="10" stroke-linecap="round" stroke-linejoin="round"/>
</g>
</svg>
