<svg width="314" height="173" viewBox="0 0 314 173" fill="none" xmlns="http://www.w3.org/2000/svg">
<mask id="mask0" mask-type="alpha" maskUnits="userSpaceOnUse" x="0" y="0" width="314" height="173">
<path d="M0 5C0 2.23858 2.23858 0 5 0H309C311.761 0 314 2.23858 314 5V173H0V5Z" fill="#C4C4C4"/>
</mask>
<g mask="url(#mask0)">
<path d="M319.837 0H-5V173H319.837V0Z" fill="#EAADAD"/>
<path d="M80.1213 129.295L75.3157 124.008L68.2346 124.971L71.7684 118.76L68.6629 112.322L75.6638 113.767L80.8307 108.828L81.6205 115.936L87.9119 119.322L81.3929 122.267L80.1213 129.295Z" stroke="#F2D6D6" stroke-width="2" stroke-miterlimit="10"/>
<path d="M246.268 129.295C249.136 129.295 251.461 126.97 251.461 124.101C251.461 121.233 249.136 118.907 246.268 118.907C243.399 118.907 241.074 121.233 241.074 124.101C241.074 126.97 243.399 129.295 246.268 129.295Z" stroke="#F2D6D6" stroke-width="2" stroke-miterlimit="10"/>
<path d="M196.847 27.3877L194.745 19.6774L192.63 11.9805L200.354 14.0017L208.078 16.023L202.469 21.6987L196.847 27.3877Z" stroke="#F2D6D6" stroke-width="2" stroke-miterlimit="10" stroke-linecap="round"/>
<path d="M65.4636 61.2673C65.4636 52.6601 55.2099 45.686 42.5602 45.686C29.9105 45.686 19.6569 52.6601 19.6569 61.2673C19.6569 68.4957 26.8987 74.5595 36.6972 76.3131C34.6893 80.0076 30.8207 82.0958 30.8207 82.0958C42.8279 80.9045 48.4099 78.4281 50.7256 75.8044C59.3328 73.5824 65.4636 67.9201 65.4636 61.2673Z" stroke="#F2D6D6" stroke-width="2" stroke-miterlimit="10" stroke-linecap="round" stroke-linejoin="round"/>
<path d="M64.4998 56.8098C74.218 57.439 83.8158 64.0784 83.8158 70.8517C83.8158 76.7281 76.4267 81.4667 68.5825 83.0998C68.2345 83.1667 68.0471 83.5549 68.2479 83.8494C69.1849 85.3085 70.4298 86.4195 71.3802 87.1424C71.7282 87.3967 71.5007 87.9455 71.0723 87.892C62.2108 86.8479 57.9809 84.8935 56.147 82.8187C52.8139 81.9486 51.6359 79.5392 49.5076 77.625C69.7337 71.6816 64.4998 56.8098 64.4998 56.8098Z" fill="#F2D6D6"/>
<path d="M35.0641 63.9177C36.491 63.9177 37.6476 62.761 37.6476 61.3342C37.6476 59.9074 36.491 58.7507 35.0641 58.7507C33.6373 58.7507 32.4807 59.9074 32.4807 61.3342C32.4807 62.761 33.6373 63.9177 35.0641 63.9177Z" fill="#F2D6D6"/>
<path d="M42.5335 63.9177C43.9603 63.9177 45.117 62.761 45.117 61.3342C45.117 59.9074 43.9603 58.7507 42.5335 58.7507C41.1067 58.7507 39.95 59.9074 39.95 61.3342C39.95 62.761 41.1067 63.9177 42.5335 63.9177Z" fill="#F2D6D6"/>
<path d="M49.9225 63.9177C51.3494 63.9177 52.506 62.761 52.506 61.3342C52.506 59.9074 51.3494 58.7507 49.9225 58.7507C48.4957 58.7507 47.3391 59.9074 47.3391 61.3342C47.3391 62.761 48.4957 63.9177 49.9225 63.9177Z" fill="#F2D6D6"/>
<path d="M219.148 79.6331L247.419 55.0967L254.714 64.7881L289.705 35.3926" stroke="#F2D6D6" stroke-width="2" stroke-miterlimit="10" stroke-linecap="round"/>
<path d="M294.591 31.283L293.306 38.2169L292.021 45.1508L288.835 36.1287L280.482 31.4704L287.537 31.3767L294.591 31.283Z" fill="#F2D6D6"/>
<path d="M126.999 51.6432C126.999 55.7527 122.434 55.4582 116.799 55.4582C111.163 55.4582 106.599 55.9535 106.599 51.844C106.599 47.7345 111.163 42.2195 116.799 42.2195C122.434 42.2195 126.999 47.5337 126.999 51.6432Z" fill="white"/>
<path d="M186.566 124.034V51.5358V50.7594C186.566 45.6058 182.39 41.416 177.223 41.416H116.919L115.326 41.4696H115.996C121.229 41.4294 125.687 45.3783 126.129 50.5988C126.289 52.5397 126.263 54.2933 126.263 55.3106V133.391C126.263 133.391 125.54 142.761 140.304 142.734H200.608C205.762 142.734 209.952 138.558 209.952 133.391C209.952 128.224 205.775 124.047 200.608 124.047H202.054H140.304C145.458 124.047 149.648 128.224 149.648 133.391C149.648 138.558 145.471 142.734 140.304 142.734" fill="white"/>
<path d="M186.566 124.034V51.5358V50.7594C186.566 45.6058 182.39 41.416 177.223 41.416H116.919L115.326 41.4696H115.996C121.229 41.4294 125.687 45.3783 126.129 50.5988C126.289 52.5397 126.263 54.2933 126.263 55.3106V133.391C126.263 133.391 125.54 142.761 140.304 142.734H200.608C205.762 142.734 209.952 138.558 209.952 133.391C209.952 128.224 205.775 124.047 200.608 124.047H202.054H140.304C145.458 124.047 149.648 128.224 149.648 133.391C149.648 138.558 145.471 142.734 140.304 142.734" stroke="#8C0E0E" stroke-width="3" stroke-miterlimit="10" stroke-linecap="round" stroke-linejoin="round"/>
<path d="M208.653 87.678V116.07" stroke="#8C0E0E" stroke-width="3" stroke-miterlimit="10" stroke-linecap="round" stroke-linejoin="round"/>
<path d="M142.54 78.8699H171.802" stroke="#8C0E0E" stroke-width="3" stroke-miterlimit="10" stroke-linecap="round" stroke-linejoin="round"/>
<path d="M142.54 71.9897H171.802" stroke="#8C0E0E" stroke-width="3" stroke-miterlimit="10" stroke-linecap="round" stroke-linejoin="round"/>
<path d="M142.54 65.1091H171.802" stroke="#8C0E0E" stroke-width="3" stroke-miterlimit="10" stroke-linecap="round" stroke-linejoin="round"/>
<path d="M138.484 101.867H140.304" stroke="#8C0E0E" stroke-width="3" stroke-miterlimit="10" stroke-linecap="round" stroke-linejoin="round"/>
<path d="M145.244 101.867H147.064" stroke="#8C0E0E" stroke-width="3" stroke-miterlimit="10" stroke-linecap="round" stroke-linejoin="round"/>
<path d="M126.129 55.4579H105.287L105.073 54.561C103.707 46.0877 109.838 41.416 115.447 41.416" stroke="#8C0E0E" stroke-width="3" stroke-miterlimit="10" stroke-linecap="round" stroke-linejoin="round"/>
<path d="M208.653 107.409V96.6733C205.481 93.1528 198.426 86.6204 187.851 86.9684C177.276 87.3165 165.109 96.8473 162.11 98.4268C159.112 100.02 152.767 99.4575 152.767 99.4575L159.286 101.867L152.767 104.611C152.767 104.611 159.112 104.062 162.11 105.642C165.109 107.235 177.276 116.752 187.851 117.1C198.426 117.448 205.481 110.929 208.653 107.409Z" fill="#C61717" stroke="#8C0E0E" stroke-width="3" stroke-miterlimit="10" stroke-linecap="round" stroke-linejoin="round"/>
<path d="M152.057 102.202H187.851" stroke="#8C0E0E" stroke-width="3" stroke-miterlimit="10" stroke-linecap="round" stroke-linejoin="round"/>
</g>
</svg>
