<svg width="314" height="173" viewBox="0 0 314 173" fill="none" xmlns="http://www.w3.org/2000/svg">
<mask id="mask0" mask-type="alpha" maskUnits="userSpaceOnUse" x="0" y="0" width="314" height="173">
<path d="M0 5C0 2.23858 2.23858 0 5 0H309C311.761 0 314 2.23858 314 5V173H0V5Z" fill="#C4C4C4"/>
</mask>
<g mask="url(#mask0)">
<path d="M319 0H-5V173H319V0Z" fill="#EAADAD"/>
<path d="M254.232 45.3917L249.439 40.1043L242.376 41.0681L245.914 34.857L242.817 28.4183L249.799 29.8774L254.94 24.938L255.727 32.0325L262.003 35.4192L255.5 38.3641L254.232 45.3917Z" stroke="#F2D6D6" stroke-width="2" stroke-miterlimit="10"/>
<path d="M47.8851 141.409C50.7462 141.409 53.0655 139.084 53.0655 136.215C53.0655 133.347 50.7462 131.021 47.8851 131.021C45.0241 131.021 42.7048 133.347 42.7048 136.215C42.7048 139.084 45.0241 141.409 47.8851 141.409Z" stroke="#F2D6D6" stroke-width="2" stroke-miterlimit="10"/>
<path d="M36.5097 17.3081C40.5285 17.3081 40.5285 22.7026 44.5606 22.7026C48.5794 22.7026 48.5794 17.3081 52.6116 17.3081C56.6304 17.3081 56.6304 22.7026 60.6625 22.7026C64.6947 22.7026 64.6946 17.3081 68.7134 17.3081C72.7456 17.3081 72.7456 22.7026 76.7777 22.7026C80.8099 22.7026 80.8099 17.3081 84.842 17.3081" stroke="#F2D6D6" stroke-width="2" stroke-miterlimit="10" stroke-linecap="round"/>
<path d="M240.987 155.05L238.891 147.339L236.782 139.642L244.485 141.664L252.189 143.685L246.595 149.374L240.987 155.05Z" stroke="#F2D6D6" stroke-width="2" stroke-miterlimit="10" stroke-linecap="round"/>
<path d="M290.147 92.0017L280.187 101.506" stroke="#F2D6D6" stroke-width="2" stroke-miterlimit="10" stroke-linecap="round"/>
<path d="M289.707 101.934L280.628 91.5732" stroke="#F2D6D6" stroke-width="2" stroke-miterlimit="10" stroke-linecap="round"/>
<path d="M47.5914 99.2433L44.5606 94.8527C44.0399 94.0897 43.1721 93.648 42.2642 93.648H21.1555C19.6068 93.648 18.3517 92.3897 18.3517 90.8369V75.9785C18.3517 74.4258 19.6068 73.1675 21.1555 73.1675H45.0947C46.6435 73.1675 47.8985 74.4258 47.8985 75.9785V99.1496C47.8852 99.3103 47.6849 99.3772 47.5914 99.2433Z" stroke="#F2D6D6" stroke-width="2" stroke-miterlimit="10"/>
<path d="M37.1639 77.344C34.0798 76.4338 32.7046 79.5795 32.7046 79.5795C32.7046 79.5795 31.3294 76.4338 28.2452 77.344C25.161 78.2543 24.2931 84.3047 32.7046 89.5118C41.116 84.3181 40.2481 78.2543 37.1639 77.344Z" fill="#F2D6D6"/>
<path d="M229.078 88.7755L257.276 64.2525L264.553 73.9439L299.453 44.5483" stroke="#F2D6D6" stroke-width="2" stroke-miterlimit="10" stroke-linecap="round"/>
<path d="M304.327 40.4255L303.045 47.3595L301.763 54.2934L298.586 45.2846L290.254 40.6263L297.291 40.5192L304.327 40.4255Z" fill="#F2D6D6"/>
<path d="M128.021 50.706C128.021 50.706 115.564 53.41 98.5273 46.6233" stroke="#F2D6D6" stroke-width="2" stroke-miterlimit="10" stroke-linecap="round"/>
<path d="M205.059 117.341H106.431C102.439 117.341 99.2082 114.102 99.2082 110.099V46.8375C99.2082 42.8351 102.439 39.5957 106.431 39.5957H205.045C209.037 39.5957 212.268 42.8351 212.268 46.8375V110.113C212.268 114.102 209.037 117.341 205.059 117.341Z" fill="#C61717" stroke="#8C0E0E" stroke-width="3" stroke-miterlimit="10" stroke-linecap="round"/>
<path d="M177.942 78.1338C178.956 78.7228 178.956 80.1953 177.942 80.7843L160.718 90.7568L143.495 100.729C142.48 101.318 141.212 100.582 141.212 99.4041V79.4591V59.5274C141.212 58.3494 142.48 57.6132 143.495 58.2022L160.718 68.1747L177.942 78.1338Z" fill="white"/>
<path d="M100.343 137.139H120.33" stroke="#8C0E0E" stroke-width="3" stroke-miterlimit="10" stroke-linecap="round"/>
<path d="M147.821 137.139H211.147" stroke="#8C0E0E" stroke-width="3" stroke-miterlimit="10" stroke-linecap="round"/>
<path d="M134.069 143.524C137.586 143.524 140.438 140.666 140.438 137.139C140.438 133.613 137.586 130.754 134.069 130.754C130.552 130.754 127.7 133.613 127.7 137.139C127.7 140.666 130.552 143.524 134.069 143.524Z" stroke="#8C0E0E" stroke-width="3" stroke-miterlimit="10" stroke-linecap="round"/>
</g>
</svg>
