<svg width="29" height="19" viewBox="0 0 29 19"  xmlns="http://www.w3.org/2000/svg">
<path fill-rule="evenodd" clip-rule="evenodd" d="M26.5319 2.54258H18.114V0H26.576V2.54258H26.5319ZM28.6474 15.2092C28.1185 16.8735 26.1793 19 22.4772 19C18.7751 19 15.7781 16.8273 15.7781 11.7883C15.7781 6.84185 18.5988 4.29927 22.3891 4.29927C26.0912 4.29927 28.383 6.56448 28.8678 9.89294C28.9559 10.5401 29 11.4185 29 12.5742H19.304C19.4802 16.6423 23.4909 16.781 24.8571 15.163L28.6474 15.2092ZM19.348 10.1241H25.3419C25.2097 8.18248 23.9757 7.30414 22.345 7.30414C20.5821 7.30414 19.6125 8.27494 19.348 10.1241ZM7.80091 18.9538H0V0H8.37386C14.9848 0.0924574 15.117 6.88808 11.6353 8.73723C15.8663 10.3552 15.9985 18.9538 7.80091 18.9538ZM3.61398 7.58151H7.93313C10.9742 7.58151 11.459 3.79075 7.58055 3.79075H3.61398V7.58151ZM7.71277 11.3723H3.61398V15.163H7.62462C11.3267 15.2092 11.1064 11.3723 7.71277 11.3723Z" fill="#A3A3A3"/>
</svg>
