<svg width="101" height="22" viewBox="0 0 101 22"  xmlns="http://www.w3.org/2000/svg">
<path d="M10.2089 5.0598V5.84177C10.2089 8.09568 9.52526 9.52162 8.02127 10.2576C9.84429 10.9936 10.5735 12.6495 10.5735 14.9494V16.7433C10.5735 20.1472 8.79605 21.9411 5.3779 21.9411H0V0H5.15002C8.7049 0 10.2089 1.65593 10.2089 5.0598ZM3.41815 3.12788V8.92364H4.73984C6.01595 8.92364 6.79073 8.37167 6.79073 6.62373V5.38178C6.79073 3.81785 6.24383 3.12788 5.05887 3.12788H3.41815ZM3.41815 12.0515V18.7673H5.3779C6.51728 18.7673 7.15534 18.2153 7.15534 16.6053V14.7194C7.15534 12.6955 6.51728 12.0515 4.96772 12.0515H3.41815Z" fill="#FF1200"/>
<path d="M29.5784 21.9411H26.1147L25.5678 17.9393H21.3748L20.7824 21.8951H17.6377L21.1014 0H26.1147L29.5784 21.9411ZM21.785 14.9494H25.0665L23.4257 3.86385L21.785 14.9494Z" fill="#FF1200"/>
<path d="M44.3449 21.9411C44.1626 21.3891 44.0258 21.0212 44.0258 19.2272V15.7774C44.0258 13.7535 43.3422 12.9715 41.7926 12.9715H40.6077V21.8951H37.1895V0H42.3395C45.8944 0 47.3984 1.65593 47.3984 5.0598V6.76173C47.3984 9.01564 46.6692 10.4876 45.1652 11.2236C46.8515 11.9595 47.444 13.6155 47.444 15.8694V19.2732C47.444 20.3312 47.4896 21.1132 47.8086 21.9411H44.3449ZM40.6077 3.12788V9.84361H41.9294C43.2055 9.84361 43.9802 9.29163 43.9802 7.5437V5.38178C43.9802 3.81785 43.4333 3.12788 42.2484 3.12788H40.6077Z" fill="#FF1200"/>
<path d="M54.7816 0H65.3095V3.12788H61.7547V21.9411H58.3365V3.12788H54.7816V0Z" fill="#FF1200"/>
<path d="M76.3388 9.24563H81.033V12.3735H76.3388V18.8132H82.218V21.9411H72.9206V0H82.218V3.12788H76.3388V9.24563Z" fill="#FF1200"/>
<path d="M97.2123 21.9411C97.03 21.3891 96.8933 21.0212 96.8933 19.2272V15.7774C96.8933 13.7535 96.2097 12.9715 94.6601 12.9715H93.4752V21.8951H90.057V0H95.207C98.7619 0 100.266 1.65593 100.266 5.0598V6.76173C100.266 9.01564 99.5367 10.4876 98.0327 11.2236C99.719 11.9595 100.311 13.6155 100.311 15.8694V19.2732C100.311 20.3312 100.357 21.1132 100.676 21.9411H97.2123ZM93.4752 3.12788V9.84361H94.7968C96.073 9.84361 96.8477 9.29163 96.8477 7.5437V5.38178C96.8477 3.81785 96.3008 3.12788 95.1159 3.12788H93.4752Z" fill="#FF1200"/>
</svg>
