<svg width="168" height="26" viewBox="0 0 168 26"  xmlns="http://www.w3.org/2000/svg">
<path d="M42.9449 17.6799H53.0458V12.9999H42.9449V4.93988H61.5175V0.129883H36.0372V25.9999H56.6299V21.1899H42.9449V17.6799Z" fill="#6E00EB"/>
<path d="M63.0815 13H67.578L57.9333 26H64.2545L70.0543 18.135H77.8743V26H83.0877V0H72.7913L63.0815 13Z" fill="#6E00EB"/>
<path d="M108.177 3.25H112.282L108.177 7.28V26H116.974V0H108.177V3.25Z" fill="#6E00EB"/>
<path d="M84.7169 3.25H93.7099V26H97.3592V3.25H106.287V0H84.7169V3.25Z" fill="#6E00EB"/>
<path d="M142.389 0.129883L125.511 23.0099V0.129883H120.363V25.7399H129.747L148.58 0.129883H142.389Z" fill="#6E00EB"/>
<path d="M164.285 5.06994L168 0.0649414H152.099L152.034 0.129941H151.969L144.41 10.3999L140.695 15.4049H140.76L133.201 25.7399H149.167L152.881 20.7349H143.106L146.951 15.4049H156.661L160.375 10.3999H150.666L154.576 5.06994H164.285Z" fill="#6E00EB"/>
<path d="M0 13.0648C0 20.1498 5.79985 25.9348 12.903 25.9348V20.5398C8.73235 20.5398 5.40884 17.1598 5.40884 13.0648C5.40884 8.96982 8.73235 5.58982 12.903 5.58982V0.194824C5.79985 0.194824 0 5.97983 0 13.0648Z" fill="#6E00EB"/>
<path d="M34.2125 7.66988C34.2125 3.50988 30.8239 0.129883 26.6532 0.129883H14.1412L21.6354 12.3499H15.249V25.9999H15.4445H18.1815V15.2749H23.3949L30.0419 25.9999H33.4305L26.8487 15.2749C30.889 15.1449 34.2125 11.8299 34.2125 7.66988Z" fill="#6E00EB"/>
</svg>
