<svg width="129" height="51" viewBox="0 0 129 51"  xmlns="http://www.w3.org/2000/svg">
<path d="M87.4492 11.8438C88.4812 11.8438 89.4684 12.0213 90.4107 12.3321C91.353 12.6429 92.1607 13.1312 92.8337 13.7528C93.5068 14.3743 94.0453 15.0846 94.4491 15.8838C94.8529 16.6829 95.0773 17.6152 95.0773 18.5919V30.9783C95.0773 32.0438 94.8529 32.9761 94.4042 33.7752C93.9555 34.6187 93.3722 35.3291 92.6542 35.9062C91.9363 36.4833 91.1286 36.9273 90.1863 37.2381C89.2889 37.5488 88.3466 37.7264 87.4043 37.7264C86.4171 37.7264 85.4299 37.5488 84.5325 37.1937C83.5902 36.8385 82.7825 36.3946 82.0646 35.773C81.3467 35.1959 80.7633 34.4855 80.3146 33.642C79.8659 32.8429 79.6415 31.9106 79.6415 30.9339V18.5919C79.6415 17.5708 79.8659 16.6385 80.3595 15.8394C80.8082 14.9958 81.4364 14.2855 82.1992 13.7084C82.962 13.1312 83.8146 12.6873 84.712 12.3321C85.6543 12.0213 86.5517 11.8438 87.4492 11.8438ZM83.0518 42.7875C83.7697 42.7431 84.3979 42.7875 84.9364 42.9207C85.4748 43.0539 85.9684 43.1871 86.462 43.3647C86.9556 43.5423 87.4492 43.6754 87.8979 43.8086C88.3915 43.9418 88.9748 43.9862 89.603 43.9418C89.9171 43.9418 90.3658 43.8974 90.8594 43.7642C91.353 43.631 91.8914 43.4535 92.4299 43.1871C92.9683 42.9207 93.4619 42.5656 93.9555 42.0772C94.4042 41.5888 94.7632 40.9673 94.9876 40.257C94.5837 40.479 94.135 40.7009 93.6863 40.8785C93.2376 41.0561 92.6991 41.1449 92.1158 41.1893C91.3978 41.2337 90.7696 41.1893 90.1863 41.0561C89.6479 40.9229 89.1094 40.7897 88.5709 40.6121C88.0774 40.4346 87.5389 40.3014 87.0004 40.1682C86.462 40.035 85.8787 39.9906 85.2056 40.035C84.8466 40.035 84.3979 40.1238 83.8594 40.257C83.321 40.3902 82.7825 40.6121 82.1992 40.8785C81.6608 41.1449 81.1223 41.5444 80.6736 41.9884C80.2249 42.4324 79.8659 43.0095 79.6864 43.7198C80.0903 43.4979 80.6287 43.2759 81.212 43.0983C81.8402 42.9207 82.4236 42.8319 83.0518 42.7875ZM90.2761 18.4587C89.7825 18.8139 89.244 18.9915 88.7504 18.9915C88.1671 18.9471 87.6287 18.7695 87.1799 18.5475C86.7312 18.3255 86.462 17.926 86.4171 17.3932C86.9556 17.5708 87.4492 17.6596 87.853 17.6152C88.3915 17.5264 88.7953 17.3488 89.1094 17.1268C89.603 16.7717 89.8722 16.3277 89.962 15.8394C90.0517 15.351 90.0068 14.907 89.7825 14.4631C89.603 14.0635 89.2889 13.7084 88.8402 13.3976C88.4363 13.0868 87.9427 12.9536 87.4492 12.9536C86.9556 12.9536 86.5069 13.0868 86.103 13.3088C85.6992 13.5308 85.43 13.7972 85.1607 14.1523C84.8915 14.5075 84.712 14.8627 84.5774 15.3066C84.4428 15.7062 84.3979 16.1501 84.3979 16.5497V33.1537C84.3979 34.086 84.6671 34.8851 85.2056 35.6398C85.744 36.3502 86.462 36.7497 87.4043 36.7497C87.8979 36.7497 88.3466 36.6165 88.7056 36.3946C89.0645 36.1726 89.3786 35.9062 89.603 35.551C89.8273 35.1959 90.0068 34.8407 90.0966 34.3967C90.1863 33.9972 90.2761 33.5532 90.2761 33.1537V18.4587Z" fill="#C6CDB8"/>
<path d="M55.4558 12.9982L55.7251 11.9771H73.2698L73.0005 12.9982H68.7826L63.9365 33.9529C63.8916 34.2193 63.8468 34.3969 63.8468 34.7076C63.8468 36.3503 65.1929 37.9041 68.0647 37.9041C70.398 37.9041 72.6864 36.883 74.5262 35.0628C73.1352 35.9951 71.8339 36.4835 70.4429 36.4835C68.2442 36.4835 66.4942 35.2848 66.4942 32.3103C66.4942 28.0039 70.1736 24.7186 73.8531 24.7186C76.7249 24.7186 78.1159 26.8052 78.1159 29.1582C78.1159 33.4646 73.8082 38.8808 68.2442 38.8808C63.8468 38.8808 60.4814 35.5511 56.443 35.5511C54.9622 35.5511 53.302 35.9951 51.7764 37.7265H50.6995L56.4879 12.9538H55.4558V12.9982Z" fill="#C6CDB8"/>
<path d="M0.174591 23.8748C0.398948 22.9425 0.80279 22.0546 1.38612 21.2999C1.96945 20.5451 2.77713 19.968 3.67456 19.524C4.93096 18.9469 6.2771 18.7249 7.66811 18.5473V16.9491C7.66811 16.3275 7.66811 15.706 7.80272 15.0845C7.93734 14.4629 8.20657 13.8858 8.56554 13.353C9.28348 12.3319 10.3604 11.6216 11.4373 10.9557C13.1873 9.84577 14.9821 8.73588 16.7321 7.62599C16.1039 7.67038 15.5206 7.67038 14.8924 7.58159C13.5911 7.40401 12.3347 7.00445 11.1232 6.64928C9.91168 6.29412 8.52067 6.07214 7.26427 6.29412C6.50145 6.42731 5.78351 6.73808 5.20018 7.22643C4.61686 7.67038 4.21301 8.29192 3.98866 8.95786H2.46303C3.53994 6.38291 5.46941 4.07434 8.07195 2.60928C9.59758 1.76576 11.3476 1.27741 13.0975 1.23301C14.4886 1.18862 15.8796 1.45499 17.2706 1.76576C18.6167 2.03214 20.0077 2.34291 21.3987 2.3873C22.6551 2.4317 23.9115 2.29851 25.1231 1.94334C25.9308 1.67697 26.7384 1.32181 27.4564 0.922245L27.0525 2.29851L17.809 9.44621C17.4501 9.71258 17.136 9.97896 16.8219 10.3341C16.5078 10.6893 16.2834 11.0445 16.1039 11.444C15.745 12.2431 15.745 13.1311 15.745 14.019V23.0757V29.3799C15.745 30.5785 15.7001 31.8216 15.386 32.9759C15.0719 34.1302 14.5334 35.2401 13.8604 36.2612C11.6617 39.3689 8.11682 41.4111 4.43737 42.299L3.85404 40.8339C4.61686 40.39 5.28993 39.8128 5.82838 39.1025C6.81555 37.815 7.30914 36.1724 7.5335 34.5742C7.71298 32.9315 7.66811 31.3333 7.66811 29.6906C7.66811 28.27 7.66811 26.8937 7.66811 25.473C7.03991 25.473 6.41171 25.473 5.73864 25.473C5.3348 25.473 4.97583 25.473 4.57199 25.5618C4.21301 25.6062 3.80917 25.7394 3.49507 25.9614C2.822 26.361 2.37329 27.0269 2.1938 27.7372C2.10406 28.1812 2.05919 28.6251 2.14893 29.0691H0.937404C0.084848 27.5152 -0.229252 25.6062 0.174591 23.8748ZM13.4565 45.4955C11.3476 45.6731 9.23861 46.1614 7.30914 47.0493C5.55915 47.8041 3.98866 48.914 2.59765 50.2014H1.02715C4.3925 44.3856 10.3604 39.9904 17.0014 38.6142C17.3603 38.0814 17.6744 37.5487 17.9437 36.9715C18.2129 36.35 18.4372 35.6397 18.5719 34.9737C18.7065 34.2634 18.7065 33.5975 18.7065 32.8871V13.5306C21.0847 10.4673 23.9115 7.80357 27.0974 5.53939C30.3282 3.23082 33.9627 1.45499 37.7319 0.211914L47.8729 11.9768L40.0652 17.393C41.4114 17.8814 42.7127 18.4585 43.969 19.1245C45.6293 20.0124 47.1549 21.0335 48.5908 22.2322V37.7706L27.6807 48.47C23.3282 46.2058 18.3475 45.0959 13.4565 45.4955ZM29.4756 5.80577C28.9371 6.24972 28.4436 6.73808 28.0846 7.31522C27.5013 8.20313 27.1423 9.22423 27.0077 10.2897V23.0313V26.4941C27.0077 27.4265 27.0077 28.4032 26.8282 29.3355C26.6487 30.2678 26.3795 31.2001 25.9308 32.0436C25.0333 33.7306 23.6423 35.1069 22.2064 36.35C21.5334 36.9271 20.8603 37.5487 20.1872 38.1258C23.059 37.9482 25.9756 38.3034 28.7128 39.2801C28.982 39.3689 29.2512 39.4577 29.4756 39.5909C29.4756 28.3588 29.4756 17.0823 29.4756 5.80577ZM31.2704 21.2999L39.6165 15.1289L31.2704 5.4506C31.2704 10.7337 31.2704 16.0168 31.2704 21.2999ZM31.2704 30.0458L39.4819 25.917C38.5396 25.2955 37.5973 24.6739 36.6101 24.1412C34.905 23.2089 33.1102 22.4097 31.2704 21.7438V30.0458ZM31.2704 36.5276L40.3793 31.9548V27.4708L31.2704 31.9992V36.5276ZM35.3089 43.1425L40.4242 40.7895V33.9526L31.2704 38.5254V40.4344C32.7063 41.1891 34.0973 42.077 35.3089 43.1425Z" fill="#C6CDB8"/>
<path d="M128.192 29.5136L128.103 29.4692V29.4248H128.058V29.3804H128.013V29.3361H127.968V29.2917H127.923V29.2473H127.878V29.2029H127.833V29.1585H127.788V29.1141H127.744V29.0697H127.699H127.654V29.0253H127.609V28.9809H127.564V28.9365H127.519V28.8921H127.474V28.8477H127.429V28.8033H127.385V28.7589H127.34V28.7145H127.295V28.6701H127.25V28.6257H127.205V28.5813H127.16V28.5369H127.115V28.4925H127.071V28.4481H127.026V28.4037H126.981V28.3594H126.936V28.315H126.891V28.2706H126.846V28.2262H126.801V28.1818H126.756V28.1374H126.712V28.093H126.667V28.0486H126.622V28.0042H126.577V27.9598H126.532V27.9154V27.871H126.487V27.8266H126.442V27.7822H126.397V27.7378H126.353V27.6934H126.308V27.649H126.263V27.6046H126.218V27.5602H126.173V27.5158H126.128V27.4714H126.083V27.427H126.038V27.3826H125.994V27.3382H125.949V27.2939H125.904V27.2495H125.859V27.2051H125.814V27.1607H125.769V27.1163H125.724V27.0719H125.679V27.0275H125.635V26.9831H125.59V26.9387H125.545V26.8943H125.5V26.8499H125.455H125.41V26.8055H125.365V26.7611H125.321V26.7167H125.276V26.6723H125.231V26.6279H125.141V26.5391H125.096V26.4947H125.051V26.4503H125.006V26.4059H124.962V26.3615H124.917V26.3171H124.872V26.2728H124.827V26.2284H124.782V26.184H124.737V26.1396H124.692V26.0952H124.647V26.0508H124.603V26.0064H124.558V25.962H124.513V25.9176H124.468V25.8732H124.423V25.8288H124.378V25.7844H124.333V25.74H124.288V25.6956V25.6512L129 21.5224C128.641 21.1229 128.282 20.7233 127.878 20.3237L127.833 20.2793L127.788 20.2349L127.744 20.1905L127.699 20.1462L127.654 20.1018L127.609 20.0574L127.564 20.013L127.519 19.9686L127.474 19.9242L127.429 19.8798L127.385 19.8354L127.34 19.791L127.295 19.7466L127.25 19.7022L127.205 19.6578L127.16 19.6134L127.115 19.569L127.071 19.5246L127.026 19.4802L126.981 19.4358L126.936 19.3914L126.891 19.347L126.846 19.3026L126.801 19.2582L126.756 19.2138L126.712 19.1694L126.667 19.1251L126.622 19.0807L126.577 19.0363L126.532 18.9919L126.487 18.9475L126.442 18.9031L126.397 18.8587L126.353 18.8143L126.308 18.7699L126.263 18.7255L126.218 18.6811L126.173 18.6367L126.128 18.5923L126.083 18.5479L126.038 18.5035L125.994 18.4591L125.949 18.4147L125.904 18.3703L125.859 18.3259L125.814 18.2815L125.769 18.2371L125.724 18.1927L125.679 18.1483L125.635 18.104L125.59 18.0596L125.545 18.0152L125.5 17.9708L125.455 17.9264L125.41 17.882L125.365 17.8376L125.321 17.7932L125.276 17.7488L125.231 17.7044L125.186 17.66L125.141 17.6156L125.096 17.5712L125.051 17.5268L125.006 17.4824L124.962 17.438L124.917 17.3936L124.872 17.3492L124.827 17.3048C124.782 17.2604 124.782 17.2604 124.737 17.216L124.692 17.1716L124.647 17.1272L124.603 17.0829L124.558 17.0385L124.513 16.9941L124.468 16.9497L124.423 16.9053L124.378 16.8609L124.333 16.8165L124.288 16.7721L124.244 16.7277L124.199 16.6833L124.154 16.6389L124.109 16.5945L124.064 16.5501L124.019 16.5057L123.974 16.4613L123.93 16.4169L123.885 16.3725L123.84 16.3281L123.795 16.2837L123.75 16.2393L123.705 16.1949L123.66 16.1505L123.615 16.1061L123.571 16.0618L123.526 16.0174L123.481 15.973L123.436 15.9286L123.391 15.8842L123.346 15.8398L123.301 15.7954L123.256 15.751C123.122 15.6178 122.987 15.529 122.897 15.4402C122.763 15.3514 122.673 15.2626 122.538 15.1294C122.404 14.9963 122.224 14.9075 122.09 14.7743C121.955 14.6855 121.821 14.5967 121.686 14.5079C121.462 14.3303 121.192 14.1971 120.968 14.0196C120.833 13.9308 120.654 13.842 120.474 13.7532C120.34 13.6644 120.16 13.5756 119.981 13.4868C119.756 13.398 119.577 13.3092 119.353 13.176C119.263 13.1316 119.173 13.0872 119.083 13.0428C117.019 12.1549 114.641 11.7554 112.039 11.7554C111.68 11.7554 111.321 11.7554 110.962 11.7998C108.494 11.933 106.25 12.5101 104.186 13.5312C101.898 14.6855 100.103 16.3281 98.8015 18.4591C97.5003 20.5457 96.8721 22.9431 96.8721 25.6068C96.8721 28.2706 97.5003 30.6679 98.8015 32.7989C99.4746 33.9088 100.282 34.8855 101.225 35.729C101.225 35.729 101.225 35.729 101.269 35.7734L101.314 35.8178L101.359 35.8622L101.404 35.9066L101.449 35.951L101.494 35.9954C101.539 36.0398 101.584 36.0842 101.628 36.1286L101.673 36.173L101.718 36.2174L101.763 36.2618L101.808 36.3062L101.853 36.3506L101.898 36.395L101.943 36.4394L101.987 36.4838C102.032 36.5282 102.032 36.5282 102.077 36.5725C102.122 36.6169 102.167 36.6613 102.212 36.7057L102.257 36.7501L102.302 36.7945L102.346 36.8389L102.391 36.8833L102.436 36.9277L102.481 36.9721L102.526 37.0165L102.571 37.0609L102.616 37.1053L102.66 37.1497C102.705 37.1941 102.75 37.2385 102.795 37.2829L102.84 37.3273L102.885 37.3717L102.93 37.4161L102.975 37.4605L103.019 37.5049L103.064 37.5493L103.109 37.5936L103.154 37.638L103.199 37.6824L103.244 37.7268C103.289 37.7712 103.334 37.8156 103.378 37.86L103.423 37.9044L103.468 37.9488L103.513 37.9932L103.558 38.0376L103.603 38.082L103.648 38.1264L103.693 38.1708L103.737 38.2152L103.782 38.2596L103.827 38.304C103.872 38.3484 103.917 38.3928 103.962 38.4372L104.007 38.4816L104.051 38.526L104.096 38.5704L104.141 38.6147L104.186 38.6591L104.231 38.7035L104.276 38.7479L104.321 38.7923L104.366 38.8367L104.41 38.8811C104.455 38.9255 104.5 38.9699 104.545 39.0143L104.59 39.0587L104.635 39.1031L104.68 39.1475L104.725 39.1919L104.769 39.2363L104.814 39.2807L104.859 39.3251L104.904 39.3695L104.949 39.4139L104.994 39.4583C105.039 39.5027 105.084 39.5471 105.128 39.5915C106.16 40.7013 107.372 41.5893 108.808 42.344C111.096 43.4983 113.654 44.1198 116.481 44.1198C118.5 44.1198 120.564 43.809 122.628 43.2319C124.737 42.6548 126.532 41.8112 128.147 40.7457L128.192 29.5136ZM117.648 36.9721C116.212 37.3717 114.776 37.638 113.385 37.7268C112.936 37.7712 112.442 37.7712 111.994 37.7712C111.366 37.7712 110.737 37.7268 110.154 37.6824C108.628 37.5049 107.237 37.1497 105.936 36.5725C105.667 36.4394 105.443 36.3506 105.173 36.2174C103.199 35.1963 101.673 33.82 100.596 31.9554C100.013 31.0231 99.6092 30.0908 99.34 29.0697C99.2054 28.5369 99.1156 28.0042 99.0259 27.4714C98.981 27.2051 98.981 26.8943 98.9362 26.6279C98.9362 26.3615 98.8913 26.0508 98.8913 25.74C98.8913 25.4292 98.8913 25.1629 98.9362 24.8521C98.981 24.2749 99.0259 23.7422 99.1605 23.2095C99.2054 22.8987 99.2951 22.5435 99.3849 22.2327C99.6541 21.256 100.058 20.3681 100.596 19.4802C101.718 17.66 103.244 16.2837 105.263 15.2626C105.532 15.1294 105.757 14.9963 106.026 14.9075C107.596 14.2415 109.346 13.842 111.231 13.7532C111.545 13.7532 111.859 13.7088 112.173 13.7088C114.551 13.7088 116.66 14.1083 118.5 14.8631C118.949 15.0407 119.353 15.2626 119.756 15.4846C120.474 15.8842 121.147 16.3281 121.731 16.8609L118.724 19.4802C117.827 18.7255 116.885 18.1927 115.853 17.7932C114.821 17.438 113.744 17.216 112.622 17.216C110.423 17.216 108.583 17.8376 107.148 18.9919C106.923 19.1694 106.744 19.347 106.564 19.5246C106.385 19.7022 106.205 19.9242 106.026 20.1462C104.859 21.6112 104.276 23.4758 104.276 25.6956C104.276 27.6934 104.769 29.4248 105.757 30.8455C105.981 31.1563 106.25 31.467 106.519 31.7778C108.045 33.3761 110.064 34.1752 112.532 34.1752C113.923 34.1752 115.269 33.9088 116.526 33.3761L116.93 33.1985L117.692 32.8877V31.7334V26.8943H121.821V35.2407C121.372 35.5071 120.833 35.7734 120.34 35.9954C119.846 36.2174 119.353 36.4394 118.814 36.6169C118.41 36.7501 118.006 36.8833 117.648 36.9721ZM115.808 25.0297V31.7334C114.776 32.1774 113.654 32.355 112.532 32.355C112.487 32.355 112.398 32.355 112.353 32.355C112.128 32.355 111.949 32.355 111.724 32.3106C111.68 32.3106 111.68 32.3106 111.635 32.3106C111.366 32.2662 111.141 32.2662 110.917 32.1774C110.782 31.6002 110.692 30.9343 110.692 30.224C110.692 28.1818 111.276 26.5835 112.442 25.3848C113.609 24.1862 115.18 23.609 117.199 23.609C118.769 23.609 120.205 24.0974 121.506 24.9853H115.808V25.0297Z" fill="#C6CDB8"/>
</svg>
