<svg width="168" height="50" viewBox="0 0 168 50"  xmlns="http://www.w3.org/2000/svg">
<g clip-path="url(#clip0)">
<path d="M167.702 23.4633C167.925 22.5637 168.075 21.7391 168 20.9145C168 20.3898 167.851 19.94 167.702 19.4903C167.925 18.5907 168.075 17.7661 168 16.9415C168 16.4168 167.851 15.967 167.702 15.5172C167.925 14.6177 168.075 13.7931 168 12.9685C168 12.4438 167.851 11.994 167.702 11.5442C167.925 10.6447 168.075 9.82009 168 8.9955C167.925 8.3958 167.851 7.94603 167.702 7.42129C168 6.44678 168.075 5.54723 168 4.72264C167.925 3.22339 167.329 2.09895 166.284 1.27436C165.24 0.449775 163.897 0 162.181 0H126L119.808 12.2189H119.361L121.375 8.24588H119.361L121.375 4.27286H119.211L121.375 0H80.27L78.1066 4.27286H73.9289L78.2558 0H68.0355L44.984 22.8636L43.9396 0H33.421L10.2202 22.5637V20.1649H10.1456L10.2202 16.1919H10.1456L10.2202 12.2189H10.1456L10.2202 8.24588H10.1456L10.2202 4.27286H10.1456L10.2948 0H0V4.27286V8.24588V12.2189V16.1919V20.1649L0.0746004 50H12.9059L34.3162 29.6852L34.9876 50H47.8188L66.0959 32.084L65.0515 34.1079H67.1403L65.1261 38.081H67.1403L65.1261 42.054H67.1403L65.1261 46.027H67.1403L65.1261 50H106.231L110.334 41.904H108.32L110.334 37.931H109.513L111.453 34.1079H112.796L110.782 38.081H112.796L110.782 42.054H112.796L110.782 46.027H112.796L110.782 50H146.963C149.574 50 152.334 49.1005 155.094 47.2264C157.854 45.3523 159.943 43.1035 161.286 40.4798C162.33 38.4558 162.554 36.6567 161.957 35.0075C164.121 33.5082 165.687 31.7091 166.732 29.6852C167.627 27.961 168 26.3868 167.925 24.8876C167.925 24.4378 167.851 23.913 167.702 23.4633ZM167.403 9.07047C167.478 9.5952 167.403 10.1949 167.329 10.7196C167.329 10.8696 167.254 11.0195 167.254 11.1694C167.254 11.3193 167.179 11.4693 167.105 11.6192C166.956 12.2189 166.657 12.8936 166.359 13.5682C166.284 13.6432 166.284 13.7181 166.21 13.7931C166.135 13.8681 166.135 13.943 166.06 14.018C165.538 14.8426 165.016 15.6672 164.27 16.4168C164.195 16.4918 164.121 16.5667 164.046 16.6417C163.972 16.7166 163.897 16.7916 163.822 16.8666C163.3 17.3913 162.703 17.8411 162.107 18.2909C162.48 17.0165 162.405 15.8171 162.032 14.7676C164.195 13.2684 165.762 11.4693 166.806 9.44528C167.03 9.07047 167.179 8.69565 167.329 8.32084C167.329 8.62069 167.403 8.84558 167.403 9.07047ZM162.032 27.0615C163.972 25.7121 165.389 24.1379 166.433 22.4138C166.508 22.3388 166.508 22.2639 166.583 22.1889C166.657 22.1139 166.657 22.039 166.732 21.8891C166.732 21.8141 166.806 21.8141 166.806 21.7391C167.03 21.3643 167.179 20.9145 167.329 20.5397C167.329 20.6897 167.403 20.8396 167.403 20.9895C167.478 21.5142 167.403 22.1139 167.329 22.6387C167.329 22.7886 167.254 22.9385 167.254 23.0885C167.254 23.2384 167.179 23.3883 167.105 23.5382C166.956 24.1379 166.657 24.8126 166.284 25.4873C165.389 27.2864 163.972 28.8606 162.181 30.2849C162.405 29.0855 162.405 28.036 162.032 27.0615ZM109.513 29.985L110.334 28.3358L110.483 28.036L110.558 27.8861H111.751L110.707 29.91H110.931L110.185 31.3343L110.036 31.6342L109.886 31.934L108.842 34.033H108.32L109.364 31.934L109.513 31.6342L109.663 31.3343L110.334 30.06H109.513V29.985ZM74.6749 10.9445L73.4067 12.2189L73.1083 12.5187L72.8845 12.7436L69.3783 16.1919L69.0799 16.4918L68.7815 16.7916L47.595 37.4813H47.2966H46.9236H46.5506H44.9094H44.7602H44.6856H44.5364H44.4618H44.3126H35.5098L35.3606 34.033H44.0142H44.1634H44.238H44.3126H44.3872H44.4618H44.5364H44.7602H44.9094H45.9538H46.3268H46.6998H47.7442L69.6021 12.7436L69.9005 12.4438L70.1989 12.1439L73.7051 8.69565H75.8686L74.6749 10.9445ZM44.238 38.081H44.3872H44.4618H44.611H44.7602H44.9094H45.9538H46.3268H46.6998H47.7442L69.5275 16.7916L69.8259 16.4918L70.1243 16.1919L73.6305 12.7436H73.7797L70.6465 18.8906L69.3783 20.1649L69.0799 20.4648L68.7815 20.7646L47.595 41.4543H47.2966H46.9236H46.5506H44.9094H44.611H44.3126H35.5098L35.3606 38.006H44.238V38.081ZM44.3872 42.054H44.6856H44.984H46.0284H46.4014H46.7744H47.8188L69.6021 20.7646L69.9005 20.5397L66.6927 26.9115L47.595 45.4273H35.5098L35.3606 41.979H44.3872V42.054ZM108.991 21.7391H78.5542L80.0462 18.8906H108.917L110.409 15.967H111.975L111.901 16.1169L111.826 16.2669L111.751 16.4168L111.677 16.5667L111.528 16.8666L110.185 19.4153L110.036 19.7151L109.961 19.8651L109.886 20.015L109.812 20.1649L109.737 20.3148L109.663 20.4648L109.588 20.6147L109.439 20.9145L108.991 21.7391ZM110.334 21.7391H109.588L110.11 20.7646L110.259 20.4648L110.334 20.3148L110.409 20.1649L110.483 20.015L110.558 19.8651H111.975L111.901 20.015L111.826 20.1649L111.751 20.3148L111.677 20.4648L111.528 20.7646L110.185 23.3133L110.036 23.6132L109.961 23.7631L109.886 23.913L109.812 24.063L109.663 24.3628L108.842 26.012H108.171L110.334 21.7391ZM112.05 27.2864H110.856L112.348 24.2879H113.542L112.05 27.2864ZM113.84 23.7631H112.647L112.87 23.3133H110.856L112.199 20.7646L112.348 20.4648L112.423 20.3148H115.631L113.84 23.7631ZM109.513 26.012L110.334 24.3628L110.483 24.063L110.558 23.913H111.975L111.901 24.063L111.751 24.3628L110.259 27.3613L110.11 27.6612L110.036 27.8111L109.961 27.961L109.886 28.1109L109.737 28.4108L108.917 30.06H108.394L109.215 28.4108L109.364 28.1109L109.439 27.961L109.513 27.8111L109.588 27.6612L109.737 27.3613L110.409 26.087H109.513V26.012ZM111.602 29.8351H112.945L112.199 31.2594H110.856L111.602 29.8351ZM157.183 9.74513C156.959 10.1949 156.661 10.4948 156.213 10.7946C155.766 11.0945 155.318 11.2444 154.945 11.2444H129.357L130.924 8.17091H156.512C156.885 8.17091 157.183 8.32084 157.332 8.62069C157.407 8.9955 157.407 9.29535 157.183 9.74513ZM151.215 18.2909C151.663 18.2909 151.961 18.4408 152.11 18.8156C152.259 19.1904 152.185 19.5652 151.961 19.94C151.737 20.3898 151.364 20.7646 150.917 21.1394C150.469 21.4393 150.021 21.5892 149.574 21.5892H124.06L125.776 18.2909H151.215ZM167.329 18.6657C167.329 18.8156 167.254 18.9655 167.254 19.1154C167.254 19.2654 167.179 19.4153 167.105 19.5652C166.956 20.1649 166.657 20.8396 166.359 21.5142C166.284 21.5892 166.284 21.6642 166.21 21.7391C166.135 21.8141 166.135 21.8891 166.06 21.964C165.165 23.5382 163.822 25.0375 162.181 26.2369C162.405 25.1124 162.405 24.063 162.032 23.0885C162.927 22.4888 163.748 21.8141 164.419 21.0645C164.494 20.9895 164.568 20.9145 164.643 20.8396C164.718 20.7646 164.792 20.6897 164.867 20.6147C165.464 19.94 165.986 19.1904 166.433 18.4408C166.508 18.3658 166.508 18.2909 166.583 18.2159C166.657 18.1409 166.657 18.066 166.732 17.916C166.732 17.8411 166.806 17.8411 166.806 17.7661C167.03 17.3913 167.179 16.9415 167.329 16.5667C167.329 16.7166 167.403 16.8666 167.403 17.0165C167.478 17.5412 167.403 18.066 167.329 18.6657ZM167.329 14.6927C167.329 14.8426 167.254 14.9925 167.254 15.1424C167.254 15.2924 167.179 15.4423 167.105 15.5922C166.956 16.1919 166.657 16.8666 166.359 17.5412C166.284 17.6162 166.284 17.6912 166.21 17.7661C166.135 17.8411 166.135 17.916 166.06 17.991C165.538 18.8156 165.016 19.6402 164.27 20.3898C164.195 20.4648 164.121 20.5397 164.046 20.6147C163.972 20.6897 163.897 20.7646 163.822 20.8396C163.3 21.3643 162.778 21.8141 162.181 22.2639C162.33 21.7391 162.33 21.2144 162.33 20.6897C162.33 20.6147 162.33 20.4648 162.33 20.3898C162.33 20.3148 162.33 20.1649 162.33 20.09C162.256 19.7151 162.181 19.4153 162.107 19.0405C163.002 18.4408 163.822 17.7661 164.494 17.0165C164.568 16.9415 164.643 16.8666 164.718 16.7916C164.792 16.7166 164.867 16.6417 164.941 16.5667C165.538 15.8921 166.06 15.1424 166.508 14.3928C166.583 14.3178 166.583 14.2429 166.657 14.1679C166.732 14.093 166.732 14.018 166.806 13.8681C166.806 13.7931 166.881 13.7931 166.881 13.7181C167.105 13.3433 167.254 12.8936 167.403 12.5187C167.403 12.6687 167.478 12.8186 167.478 12.9685C167.478 13.5682 167.403 14.093 167.329 14.6927ZM119.435 12.7436L115.854 19.7151H112.647L112.87 19.2654H110.856L112.199 16.7166L112.348 16.4168L112.423 16.2669H117.346L117.421 16.1169L119.137 12.6687H119.435V12.7436ZM120.48 8.77061L118.764 12.2189L118.615 12.5187L118.465 12.8186L116.899 15.8171H112.647L112.87 15.3673H110.707L112.199 12.3688H117.272L117.346 12.2189L119.062 8.77061H120.48ZM120.48 4.7976L118.764 8.24588L118.615 8.54573L118.465 8.84558L116.899 11.8441H112.497L112.87 11.0945H83.9254L85.4174 8.09595H117.197L118.838 4.7976H120.48ZM76.0924 8.24588H74.2273L77.9574 4.64768L76.0924 8.24588ZM76.913 4.7976L73.4067 8.24588L73.1083 8.54573L72.8099 8.84558L69.3783 12.2189L69.0799 12.5187L68.7815 12.7436L47.595 33.5082H47.2966H46.9236H46.5506H44.9094H44.7602H44.6856H44.611H44.5364H44.4618H44.3872H44.3126H44.0142H35.5098L35.3606 29.8351H47.8188L73.3321 4.7976H76.913ZM12.9059 29.8351L34.3162 9.52024L34.3908 12.8936L33.8686 13.3433L12.6821 33.5082H12.3091H11.9361H11.5631H10.1456H10.071H9.99645H9.84725H9.77265H9.69805H9.54885H9.47424H9.39964H0.671403V29.8351H12.9059ZM33.9432 29.2354L12.6821 49.4753H0.671403V46.027H12.9805L34.3162 25.7121L34.3908 28.7856L33.9432 29.2354ZM33.9432 25.2624L12.6821 45.4273H0.671403V41.979H9.47424H9.69805H9.99645H10.9663H11.3393H11.7123H12.9059L34.3162 21.7391L34.3908 24.8126L33.9432 25.2624ZM33.9432 21.2894L12.6821 41.4543H12.3091H11.9361H11.5631H10.071H9.69805H9.39964H0.671403V38.006H9.47424H9.54885H9.69805H9.77265H9.99645H10.071H10.9663H11.3393H11.7123H12.9059L34.3162 17.7661L34.3908 20.1649V20.4648V20.7646V20.9145L33.9432 21.2894ZM33.9432 17.3163L12.6821 37.4813H12.3091H11.9361H11.5631H10.071H9.99645H9.77265H9.69805H9.47424H9.39964H0.671403V34.033H9.47424H9.54885H9.62344H9.69805H9.77265H9.84725H9.99645H10.071H10.1456H10.9663H11.3393H11.7123H12.9059L34.3162 13.7931L34.3908 16.1919V16.4918V16.7916V16.9415L33.9432 17.3163ZM47.595 49.4753H35.5098L35.3606 46.027H47.8188L65.7975 28.4108L65.0515 29.8351H67.2149L66.8419 30.5097L47.595 49.4753ZM66.0213 33.5082L67.3641 30.8846L67.7371 30.1349L67.8863 29.91H106.231L107.872 26.6117H108.842H109.14H109.364L108.991 27.3613L108.842 27.6612L108.767 27.8111L108.693 27.961L108.618 28.1109L108.469 28.4108L107.648 30.06L107.499 30.3598L107.35 30.6597L107.201 30.9595L107.052 31.2594L106.977 31.4843L106.828 31.7841L106.679 32.084L105.783 33.8081H78.6288H78.3304H78.032H74.0035H73.7051H73.4067H71.9893H71.6909H71.3925H69.9751H69.6767H69.3783H67.9609H67.6625H67.3641H66.0213V33.5082ZM66.0213 37.4813L67.7371 34.033H69.1545H69.4529H69.7513H71.1687H71.4671H71.7655H73.1829H73.4813H73.7797H77.8082H78.1066H106.156L106.231 33.8831L107.275 31.7841L107.425 31.4843L107.574 31.1844L107.648 30.9595L107.798 30.6597L107.947 30.3598H108.767H109.066H109.29L108.917 31.1094L108.767 31.4093L108.618 31.7091L107.574 33.8081L107.425 34.1079V34.4828L107.275 34.7826L107.126 35.0825L105.858 37.5562H78.7034H78.405H78.1066H72.0639H71.7655H71.4671H70.0497H69.7513H69.4529H68.0355H67.7371H67.4387H66.0213V37.4813ZM66.0213 41.4543L67.7371 38.006H69.1545H69.4529H69.7513H71.1687H71.4671H71.7655H77.8082H78.1066H106.156L106.231 37.8561L107.723 35.0075L107.872 34.7076L108.021 34.4078H108.842H109.14H109.364L107.648 37.8561L107.499 38.1559L107.35 38.4558L107.201 38.7556L107.052 39.0555L105.783 41.5292H78.6288H78.3304H78.032H70.0497H69.7513H69.4529H68.0355H67.7371H67.4387H66.0213V41.4543ZM109.439 42.4288L105.858 49.4003H66.0213L67.7371 45.952H106.231L108.021 42.3538H109.439V42.4288ZM107.723 41.904L107.574 42.2039L107.425 42.5037L105.858 45.5023H68.0355H67.7371H67.4387H66.0213L67.7371 42.054H69.1545H69.4529H69.7513H77.8082H78.1066H106.156L106.231 41.904L107.723 39.0555L107.872 38.7556L108.021 38.4558H108.842H109.14H109.364L107.723 41.904ZM110.856 34.1079L108.917 37.931H108.394L110.409 33.958H109.588L110.632 31.8591H111.975L110.856 34.1079ZM111.751 33.5082L112.87 31.2594L113.616 29.8351H146.963C149.574 29.8351 152.334 28.9355 155.094 27.0615C157.854 25.1874 159.943 22.9385 161.286 20.3148C161.361 20.09 161.51 19.94 161.584 19.7151C161.659 19.8651 161.659 20.015 161.659 20.1649C161.659 20.2399 161.659 20.3148 161.734 20.4648C161.734 20.5397 161.734 20.6147 161.734 20.7646C161.734 21.4393 161.659 22.1139 161.435 22.8636C161.435 22.9385 161.435 23.0135 161.361 23.0135C161.211 23.4633 161.062 23.913 160.838 24.3628C160.092 25.8621 159.048 27.2864 157.78 28.4858C157.705 28.5607 157.631 28.6357 157.556 28.7106C157.481 28.7856 157.407 28.8606 157.332 28.9355C156.586 29.6102 155.766 30.2849 154.796 30.8846C154.497 31.1094 154.124 31.3343 153.826 31.4843C153.677 31.5592 153.453 31.7091 153.304 31.7841C153.155 31.8591 152.931 32.009 152.782 32.084C152.707 32.084 152.707 32.1589 152.632 32.1589C152.483 32.2339 152.409 32.3088 152.259 32.3088C152.11 32.3838 151.961 32.4588 151.812 32.5337C150.171 33.2084 148.529 33.5832 146.963 33.5832H124.21H123.911H123.613H119.808H119.51H119.211H117.794H117.496H117.123H115.705H115.407H115.108H113.691H113.393H113.094H111.751V33.5082ZM111.677 37.4813L113.393 34.033H114.81H115.108H115.407H116.824H117.123H117.421H118.838H119.137H119.435H123.24H125.254H146.888H146.963C147.634 34.033 148.231 33.958 148.902 33.8831C149.051 33.8831 149.201 33.8081 149.424 33.8081C149.798 33.7331 150.245 33.5832 150.618 33.5082C150.917 33.4333 151.215 33.2834 151.513 33.2084C151.737 33.1334 151.886 33.0585 152.11 32.9835C152.707 32.7586 153.304 32.4588 153.901 32.084C154.05 32.009 154.199 31.934 154.348 31.7841C154.497 31.7091 154.647 31.6342 154.796 31.4843C154.87 31.4093 154.945 31.4093 155.02 31.3343C155.84 30.8096 156.512 30.2849 157.183 29.6852C157.332 29.6102 157.407 29.4603 157.556 29.3853C157.631 29.3103 157.705 29.2354 157.854 29.1604C159.272 27.8111 160.391 26.3118 161.211 24.6627C161.361 24.4378 161.435 24.2129 161.51 23.913C161.734 24.8126 161.659 25.7871 161.286 26.8366C161.286 26.9115 161.286 26.9865 161.211 26.9865C161.062 27.4363 160.913 27.8861 160.689 28.3358C159.421 30.8846 157.407 33.0585 154.647 34.8576C153.901 35.3073 153.155 35.7571 152.483 36.1319C152.334 36.2069 152.259 36.2819 152.11 36.2819C151.961 36.3568 151.812 36.4318 151.663 36.5067C150.021 37.1814 148.38 37.5562 146.813 37.5562H124.06H123.762H123.464H117.645H117.346H117.123H115.705H115.407H115.108H113.691H113.393H113.094H111.677V37.4813ZM111.677 41.4543L113.393 38.006H114.81H115.108H115.407H116.824H117.123H117.421H123.24H125.254H146.888H146.963C147.634 38.006 148.231 37.931 148.902 37.8561C149.051 37.8561 149.201 37.7811 149.424 37.7811C149.798 37.7062 150.245 37.5562 150.618 37.4813C150.917 37.4063 151.215 37.2564 151.513 37.1814C151.737 37.1064 151.886 37.0315 152.11 36.9565C153.08 36.5067 154.05 35.982 155.02 35.3073C157.78 33.4333 159.869 31.1844 161.211 28.5607C161.361 28.3358 161.435 28.1109 161.51 27.8111C161.734 28.7106 161.659 29.6852 161.286 30.7346C161.286 30.8096 161.286 30.8846 161.211 30.8846C161.062 31.3343 160.913 31.7841 160.689 32.2339C159.421 34.7826 157.407 36.9565 154.647 38.7556C153.901 39.2054 153.155 39.6552 152.483 40.03C152.334 40.1049 152.259 40.1799 152.11 40.1799C151.961 40.2549 151.812 40.3298 151.663 40.4048C150.021 41.0795 148.38 41.4543 146.813 41.4543H124.06H123.762H123.464H115.556H115.258H114.959H113.542H113.393H113.094H111.677ZM111.677 45.4273L113.393 41.979H114.81H115.108H115.407H123.314H146.963H147.037C147.858 41.979 148.678 41.904 149.499 41.6792C149.872 41.6042 150.32 41.4543 150.693 41.3793C150.991 41.3043 151.29 41.1544 151.588 41.0795C151.812 41.0045 151.961 40.9295 152.185 40.8546C153.155 40.4048 154.124 39.8801 155.094 39.2054C157.854 37.3313 159.943 35.0825 161.286 32.4588C161.435 32.2339 161.51 32.009 161.584 31.7091C161.808 32.6087 161.734 33.5832 161.361 34.6327C161.361 34.7076 161.361 34.7826 161.286 34.7826C161.137 35.2324 160.988 35.6822 160.764 36.1319C159.496 38.6807 157.481 40.8546 154.721 42.6537C152.036 44.4528 149.424 45.3523 146.888 45.3523H113.616H113.393H113.094H111.677V45.4273ZM160.838 40.2549C159.57 42.8036 157.556 44.9775 154.796 46.7766C152.11 48.5757 149.499 49.4753 146.963 49.4753H111.677L113.393 46.027H146.963C149.574 46.027 152.334 45.1274 155.094 43.2534C157.854 41.3793 159.943 39.1304 161.286 36.5067C161.435 36.2819 161.51 36.057 161.584 35.7571C161.957 37.1064 161.659 38.6057 160.838 40.2549ZM166.284 29.4603C165.389 31.2594 163.972 32.8336 162.181 34.2579C162.405 33.1334 162.405 32.084 162.032 31.1094C164.195 29.6102 165.762 27.8111 166.806 25.7871C167.03 25.4123 167.179 24.9625 167.329 24.5877C167.329 24.7376 167.403 24.8876 167.403 25.0375C167.478 26.3118 167.105 27.8111 166.284 29.4603Z" fill="#8CCCFF"/>
</g>
<defs>
<clipPath id="clip0">
<rect width="168" height="50" fill="white"/>
</clipPath>
</defs>
</svg>
