<svg width="156" height="50" viewBox="0 0 156 50"  xmlns="http://www.w3.org/2000/svg">
<path d="M5.19294 13.7898V20.2265H0V0.0581055H10.7568C14.837 0.0581055 17.9103 2.74008 17.9103 6.92395C17.9103 11.1078 14.89 13.7898 10.7568 13.7898H5.19294ZM5.19294 4.93929V8.85497H10.7568C11.9226 8.85497 12.6644 8.15766 12.6644 6.87031C12.6644 5.63661 11.9226 4.93929 10.7568 4.93929H5.19294Z" fill="#00FF25"/>
<path d="M25.9647 0.0581055H37.3044C41.3846 0.0581055 44.4579 2.47188 44.4579 6.33392C44.4579 9.17681 42.8153 11.2687 40.3778 12.1806V12.3415L45.2528 19.0465V20.1729H39.477L34.7079 13.1998H31.1577V20.1729H25.9647V0.0581055ZM31.1577 4.93929V8.31858H37.3044C38.4702 8.31858 39.212 7.67491 39.212 6.60212C39.212 5.52933 38.4702 4.93929 37.3044 4.93929H31.1577Z" fill="#00FF25"/>
<path d="M20.9307 37.0162H20.5068L15.2609 49.1387H11.0217L5.61685 37.0162H5.19294V49.1387H0V29.0239H7.25951L12.8234 41.7365H13.3533L18.9701 29.0239H26.1236V49.1924H20.9307V37.0162Z" fill="#00FF25"/>
<path d="M63.1631 29.0239H81.8153V33.5833H75.0856V49.1387H69.8927V33.5833H63.1631V29.0239Z" fill="#00FF25"/>
<path d="M89.8695 29.0239H95.0624V49.1924H89.8695V29.0239Z" fill="#00FF25"/>
<path d="M140.368 35.5679H140.05V49.1924H134.857V29.0239H142.223L150.489 42.5947H150.807V29.0239H156V49.1924H148.634L140.368 35.5679Z" fill="#00FF25"/>
<path d="M63.587 20.1728C69.0888 20.1728 73.5489 15.658 73.5489 10.0886C73.5489 4.51925 69.0888 0.00439453 63.587 0.00439453C58.0851 0.00439453 53.625 4.51925 53.625 10.0886C53.625 15.658 58.0851 20.1728 63.587 20.1728Z" fill="#00FF25"/>
<path d="M44.034 49.1377C49.5358 49.1377 53.9959 44.6228 53.9959 39.0535C53.9959 33.4841 49.5358 28.9692 44.034 28.9692C38.5321 28.9692 34.072 33.4841 34.072 39.0535C34.072 44.6228 38.5321 49.1377 44.034 49.1377Z" fill="#00FF25"/>
<path d="M114.986 49.1377C120.488 49.1377 124.948 44.6228 124.948 39.0535C124.948 33.4841 120.488 28.9692 114.986 28.9692C109.485 28.9692 105.024 33.4841 105.024 39.0535C105.024 44.6228 109.485 49.1377 114.986 49.1377Z" fill="#00FF25"/>
</svg>
