<svg width="168" height="19" viewBox="0 0 168 19"  xmlns="http://www.w3.org/2000/svg">
<path d="M0 0H19.6489V5.40647H7.14154V7.13026H17.2169V11.4789H7.14154V13.4378H19.6489V18.8443H0V0Z" fill="#0000FF"/>
<path d="M49.0643 0H70.5276C72.6121 0 74.4265 0.156709 75.9706 0.43095C77.5147 0.744368 78.7886 1.37121 79.8309 2.35064C80.8731 3.33007 81.375 4.77963 81.375 6.69932C81.375 9.20666 80.5643 11.048 78.943 12.1841C77.3217 13.3203 75.1213 13.9079 72.3805 13.9079H56.0901V18.8443H49.1029V0H49.0643ZM71.454 8.77571C72.1875 8.77571 72.7665 8.619 73.1912 8.26641C73.6158 7.91381 73.8474 7.44369 73.8474 6.77767C73.8474 6.15084 73.6158 5.71988 73.1912 5.44564C72.7665 5.21058 72.1489 5.05387 71.4154 5.05387H56.0129V8.73654H71.454V8.77571Z" fill="#0000FF"/>
<path d="M83.1893 0H96.1985C97.8584 0 99.3254 0.195886 100.676 0.626836C101.989 1.05779 103.07 1.76298 103.881 2.70323C104.691 3.68267 105.077 4.93634 105.077 6.50343C105.077 7.2478 104.884 7.99217 104.46 8.69736C104.035 9.40255 103.494 9.99021 102.761 10.4603C102.028 10.9305 101.256 11.2047 100.406 11.2831C101.14 11.3222 101.835 11.5181 102.491 11.9491C103.147 12.3408 103.572 12.9677 103.803 13.7904L104.575 16.572C104.73 17.1597 104.923 17.6298 105.116 17.904C105.309 18.2174 105.502 18.4525 105.656 18.6092C105.811 18.7659 105.926 18.8835 105.965 18.9226H98.4375C98.3989 18.8835 98.3217 18.8051 98.1673 18.6484C98.0129 18.4917 97.9356 18.3741 97.8198 18.2174C97.7426 18.0607 97.6654 17.904 97.5882 17.669L96.9706 15.7101C96.6231 14.6915 96.1213 13.9471 95.4651 13.477C94.7702 13.0069 93.8051 12.7718 92.5698 12.7718H90.1765V18.9226H83.1893V0ZM95.3106 8.46229C96.0441 8.46229 96.5845 8.30559 97.0092 7.95299C97.3952 7.60039 97.6268 7.13026 97.6268 6.54261C97.6268 5.99412 97.4338 5.60235 97.0092 5.40647C96.5845 5.1714 96.0055 5.09305 95.272 5.09305H90.2537V8.50147H95.3106V8.46229Z" fill="#0000FF"/>
<path d="M107.625 0H127.274V5.40647H114.767V7.13026H124.842V11.4789H114.767V13.4378H127.274V18.8443H107.625V0Z" fill="#0000FF"/>
<path d="M134.994 18.2958C133.643 17.9432 132.408 17.3947 131.327 16.7287C130.246 16.0627 129.436 15.2791 128.857 14.3781L132.987 11.7924C133.026 11.7924 133.064 11.7532 133.103 11.7532C133.875 12.38 134.724 12.9285 135.689 13.3203C136.654 13.7121 137.735 13.9079 138.855 13.9079C139.858 13.9079 140.553 13.8296 140.939 13.6729C141.325 13.5162 141.518 13.2811 141.518 13.0069C141.518 12.7718 141.364 12.6151 141.055 12.4976C140.746 12.38 140.244 12.2625 139.588 12.145L135.38 11.3222C133.45 10.8913 132.022 10.1861 131.096 9.20666C130.169 8.22723 129.706 7.01273 129.706 5.524C129.706 1.84133 132.64 0 138.507 0C140.399 0 142.136 0.313419 143.719 0.940256C145.301 1.56709 146.614 2.62488 147.618 4.07444L142.908 6.30754H142.792C142.561 5.95495 142.175 5.64153 141.673 5.44564C141.171 5.21058 140.63 5.05387 140.051 4.93634C139.472 4.81881 138.971 4.77963 138.507 4.77963C137.465 4.77963 136.732 4.85798 136.346 4.97551C135.96 5.09305 135.767 5.28893 135.767 5.524C135.767 5.68071 135.805 5.79824 135.921 5.87659C136.037 5.95495 136.191 6.0333 136.423 6.11166C136.654 6.19001 136.963 6.26837 137.426 6.34672L142.213 7.40451C144.028 7.7571 145.456 8.34476 146.498 9.20666C147.54 10.0686 148.042 11.2439 148.042 12.7326C148.042 13.9079 147.695 14.9265 147.039 15.8668C146.382 16.8071 145.34 17.5122 144.028 18.0607C142.676 18.6092 141.055 18.8835 139.086 18.8835C137.697 18.8443 136.346 18.6484 134.994 18.2958Z" fill="#0000FF"/>
<path d="M154.952 18.2962C153.601 17.9436 152.366 17.3951 151.285 16.7291C150.204 16.0631 149.393 15.2795 148.814 14.3784C148.814 14.3784 153.022 11.7927 153.061 11.7927C153.833 12.4196 154.682 12.9681 155.647 13.3598C156.612 13.7516 157.693 13.9475 158.812 13.9475C159.816 13.9475 160.511 13.8691 160.897 13.7124C161.283 13.5557 161.476 13.3207 161.476 13.0464C161.476 12.8113 161.322 12.6546 161.013 12.5371C160.704 12.4196 160.202 12.302 159.546 12.1845L155.338 11.3618C153.408 10.9308 151.98 10.2256 151.053 9.24621C150.127 8.26678 149.664 7.05228 149.664 5.56355C149.664 1.88088 152.597 0.0395508 158.465 0.0395508C160.357 0.0395508 162.094 0.35297 163.676 0.979806C165.259 1.60664 166.572 2.66443 167.575 4.11399L162.75 6.38627C162.518 6.03368 162.132 5.72026 161.631 5.52437C161.129 5.28931 160.588 5.1326 160.009 5.01507C159.43 4.89754 158.928 4.85836 158.465 4.85836C157.423 4.85836 156.689 4.93671 156.303 5.05424C155.917 5.17178 155.724 5.36766 155.724 5.60273C155.724 5.75944 155.763 5.87697 155.879 5.95532C155.994 6.03368 156.149 6.11203 156.381 6.19039C156.612 6.26874 156.921 6.3471 157.384 6.42545L162.171 7.48324C163.985 7.83583 165.414 8.42349 166.456 9.28539C167.498 10.1473 168 11.3226 168 12.8113C168 13.9867 167.653 15.0053 166.996 15.9455C166.34 16.8858 165.298 17.591 163.985 18.1395C162.634 18.6879 161.013 18.9622 159.044 18.9622C157.654 18.8447 156.303 18.6488 154.952 18.2962Z" fill="#0000FF"/>
<path d="M21.2702 0L39.0662 18.8443H47.829L30.0717 0H21.2702Z" fill="#0000FF"/>
<path d="M39.2592 0L20.8842 18.8443H28.9136L47.25 0H39.2592Z" fill="#0000FF"/>
</svg>
