<svg width="167" height="45" viewBox="0 0 167 45"  xmlns="http://www.w3.org/2000/svg">
<path d="M25.7454 3.68702L48.2527 42.343H38.0076L36.4151 39.7624L35.8843 38.8671H34.8226H16.562H15.5003L14.9695 39.8151L13.4832 42.343H3.23808L25.7454 3.68702ZM25.7454 0.000488281L0 44.2389H14.5448L16.562 40.763H34.8226L36.946 44.2389H51.4377L25.7454 0.000488281Z" fill="#28E8E8"/>
<path d="M72.7241 5.37159V22.1716C72.7241 25.8582 71.4501 28.9127 68.7959 31.546C66.1417 34.1792 63.0629 35.4432 59.3471 35.4432C55.6313 35.4432 52.5524 34.1792 49.8983 31.546C47.2441 28.9127 45.917 25.8582 45.917 22.1716V5.37159H53.7203V22.1716C53.7203 25.7002 56.5868 27.5961 59.4002 27.5961C62.1074 27.5961 64.8677 25.7529 64.8677 22.1716V5.37159H72.7241ZM74.582 3.52832H63.0098V22.1716C63.0098 24.5942 61.205 25.7529 59.4002 25.7529C57.4892 25.7529 55.5782 24.5416 55.5782 22.1716V3.52832H44.1122V22.1716C44.1122 26.3322 45.6516 29.8607 48.6243 32.8626C51.5969 35.8118 55.2066 37.2864 59.4002 37.2864C63.5937 37.2864 67.1503 35.8118 70.1761 32.8626C73.1487 29.9134 74.6351 26.3322 74.6351 22.1716V3.52832H74.582Z" fill="#28E8E8"/>
<path d="M96.1869 5.42481C101.336 5.42481 105.583 7.21541 109.298 10.9019C113.014 14.5885 114.819 18.8543 114.819 23.9101C114.819 28.966 112.961 33.3371 109.298 36.971C105.636 40.6049 101.336 42.3955 96.1869 42.3955H81.3236V5.42481H96.1869ZM96.1869 3.58154H79.4656V44.2387H96.1869C101.814 44.2387 106.591 42.2901 110.626 38.2876C114.66 34.2851 116.677 29.4926 116.677 23.9101C116.677 18.3277 114.66 13.5878 110.626 9.58533C106.644 5.5828 101.814 3.58154 96.1869 3.58154Z" fill="#28E8E8"/>
<path d="M129.311 16.2207V42.3951H120.34V16.2207H129.311ZM131.169 14.3774H118.482V44.2384H131.169V14.3774Z" fill="#28E8E8"/>
<path d="M149.96 5.42481C154.154 5.42481 157.657 6.84676 160.63 9.79599C163.656 12.7979 165.089 16.2738 165.089 20.3816C165.089 24.5421 163.603 28.018 160.63 30.9672C157.657 33.9164 154.154 35.3384 149.96 35.3384C145.767 35.3384 142.263 33.9164 139.291 30.9672C136.318 28.018 134.885 24.5421 134.885 20.3816C134.885 16.2211 136.318 12.7452 139.291 9.79599C142.263 6.84676 145.767 5.42481 149.96 5.42481ZM149.96 3.58154C145.236 3.58154 141.308 5.21415 137.963 8.53203C134.619 11.8499 132.974 15.7998 132.974 20.4343C132.974 25.1214 134.619 29.0186 137.963 32.3365C141.308 35.6544 145.289 37.287 149.96 37.287C154.685 37.287 158.613 35.6544 161.957 32.3365C165.301 29.0186 167 25.0688 167 20.4343C167 15.7471 165.301 11.8499 161.957 8.53203C158.613 5.21415 154.685 3.58154 149.96 3.58154Z" fill="#28E8E8"/>
<path d="M124.799 1.84327C126.073 1.84327 127.081 2.26459 127.984 3.15989C128.886 4.05519 129.311 5.05582 129.311 6.31977C129.311 7.58373 128.886 8.58436 127.984 9.47966C127.081 10.375 126.073 10.7963 124.799 10.7963C123.525 10.7963 122.516 10.375 121.614 9.47966C120.711 8.58436 120.287 7.58373 120.287 6.31977C120.287 5.05582 120.711 4.05519 121.614 3.15989C122.569 2.26459 123.578 1.84327 124.799 1.84327ZM124.799 0C123.047 0 121.561 0.631977 120.34 1.84327C119.119 3.05456 118.482 4.52917 118.482 6.26711C118.482 8.00504 119.119 9.47966 120.34 10.6909C121.561 11.9022 123.047 12.5342 124.799 12.5342C126.551 12.5342 128.037 11.9022 129.258 10.6909C130.479 9.47966 131.116 8.00504 131.116 6.26711C131.116 4.52917 130.479 3.05456 129.258 1.84327C128.037 0.631977 126.604 0 124.799 0Z" fill="#28E8E8"/>
</svg>
