<svg width="171" height="39" viewBox="0 0 171 39"  xmlns="http://www.w3.org/2000/svg">
<path d="M4.43029 37.8601C3.82106 37.8601 3.59952 37.5265 3.82106 36.9149C7.91955 25.1288 -2.10514 13.3427 1.99335 1.61211C2.21489 1.00056 2.71336 0.666992 3.32259 0.666992C5.70415 0.666992 8.14109 0.666992 10.5227 0.666992C14.6765 0.666992 15.9504 3.16877 16.0612 8.45029C16.1165 10.5629 16.4489 12.6755 16.8919 14.8437C18.1104 20.1252 16.2273 22.627 12.1842 22.627C11.0211 22.627 9.80265 22.627 8.63956 22.627C9.74726 27.4082 10.4119 32.1894 8.75033 36.9705C8.52879 37.5821 8.03032 37.9156 7.42109 37.9156C6.42416 37.8601 5.42723 37.8601 4.43029 37.8601ZM11.1319 9.06184C11.0211 6.39328 10.4673 5.39257 8.52879 5.39257C7.69801 5.39257 6.86724 5.39257 6.03646 5.39257C5.538 9.56219 6.42416 13.7318 7.47647 17.9014C8.30725 17.9014 9.13803 17.9014 9.9688 17.9014C11.8519 17.9014 12.4057 16.9007 11.8519 14.2322C11.5196 12.4531 11.2427 10.7297 11.1319 9.06184Z" fill="#FFCE00"/>
<path d="M32.843 37.8601C32.2338 37.8601 32.0122 37.5821 32.0676 37.0261C32.4553 32.1894 30.4615 27.3526 27.9691 22.5158C27.3599 22.5158 26.6953 22.5158 26.086 22.5158C27.1937 27.297 27.8584 32.0782 26.1968 36.8593C25.9753 37.4709 25.4768 37.8045 24.8676 37.8045C23.8706 37.8045 22.8737 37.8045 21.8768 37.8045C21.2675 37.8045 21.046 37.4709 21.2675 36.8593C25.366 25.1288 15.3413 13.3427 19.4398 1.61211C19.6614 1.00056 20.1598 0.666992 20.7691 0.666992C23.206 0.666992 25.5876 0.666992 28.0245 0.666992C32.1784 0.666992 33.3969 3.16877 33.5076 8.45029C33.563 10.4517 33.8399 12.4531 34.283 14.4546C35.1138 18.3462 34.8369 20.4032 32.3999 21.5707C35.0584 26.6855 37.3846 31.8002 37.0523 36.8593C37.0523 37.4709 36.5538 37.9156 35.8338 37.9156C34.8369 37.8601 33.8399 37.8601 32.843 37.8601ZM28.5784 9.06184C28.4676 6.39328 27.9137 5.39257 25.9753 5.39257C25.1445 5.39257 24.3137 5.39257 23.4829 5.39257C22.9845 9.56219 23.8706 13.7318 24.9229 17.9014C25.7537 17.9014 26.5845 17.9014 27.4153 17.9014C29.2984 17.9014 29.8522 16.9007 29.2984 14.2322C28.9107 12.4531 28.6891 10.7297 28.5784 9.06184Z" fill="#FFCE00"/>
<path d="M35.8891 7.7833C35.9445 2.55737 40.763 0 45.4708 0C50.4554 0 51.2308 2.55737 51.1754 7.7833C51.1754 15.4554 55.0524 23.0719 54.997 30.744C54.9416 35.97 50.1231 38.5273 45.7477 38.5273C41.1507 38.5273 39.6553 35.97 39.7107 30.744C39.7107 23.0719 35.8338 15.4554 35.8891 7.7833ZM46.2461 8.39485C46.5231 3.44689 41.0953 3.44689 40.8184 8.39485C40.9846 15.6222 44.4738 22.8496 44.64 30.0769C44.3631 35.0249 49.7908 35.0249 50.0677 30.0769C49.9016 22.8496 46.4123 15.6222 46.2461 8.39485Z" fill="#FFCE00"/>
<path d="M57.3232 37.8601C56.7139 37.8601 56.4924 37.5265 56.7139 36.9149C60.8124 25.1288 50.7877 13.3427 54.8862 1.61211C55.1078 1.00056 55.6062 0.666992 56.2155 0.666992C58.6524 0.666992 61.1447 0.666992 63.5817 0.666992C67.7356 0.666992 68.8987 3.16877 68.954 8.45029C69.1202 15.6776 72.6095 22.905 72.7756 30.1323C72.831 35.4139 68.6217 37.9156 64.6894 37.9156C62.2524 37.8601 59.7601 37.8601 57.3232 37.8601ZM64.0248 9.06184C63.914 6.39328 63.3601 5.39257 61.4217 5.39257C60.5909 5.39257 59.7601 5.39257 58.9293 5.39257C57.8216 14.6769 63.5817 23.9613 62.474 33.1901C63.3048 33.1901 64.1355 33.1901 64.9663 33.1901C66.8494 33.1901 67.9017 32.1894 67.791 29.5208C67.4586 22.6826 64.4125 15.8444 64.0248 9.06184Z" fill="#FFCE00"/>
<path d="M82.9665 1.61211C83.188 1.00056 83.6865 0.666992 84.2957 0.666992C85.2926 0.666992 86.2896 0.666992 87.2865 0.666992C87.8957 0.666992 88.1173 1.00056 87.8957 1.61211C84.5172 11.3412 90.7758 21.0148 90.7204 30.7439C90.665 35.9698 85.8465 38.5272 81.4711 38.5272C76.8741 38.5272 75.3787 35.9698 75.4341 30.7439C75.4341 21.0148 69.231 11.3412 72.6095 1.61211C72.831 1.00056 73.3295 0.666992 73.9387 0.666992C74.9356 0.666992 75.9326 0.666992 76.9295 0.666992C77.5387 0.666992 77.7603 1.00056 77.5387 1.61211C74.271 11.1189 80.1418 20.6256 80.3634 30.1323C80.0864 35.0803 85.5142 35.0803 85.7911 30.1323C85.5696 20.6256 79.6434 11.1189 82.9665 1.61211Z" fill="#FFCE00"/>
<path d="M108.72 30.744C108.665 35.97 103.847 38.5273 99.4712 38.5273C94.8742 38.5273 93.3788 35.97 93.4342 30.744C93.4342 23.0719 89.5573 15.4554 89.6126 7.7833C89.668 2.55737 94.5419 0 99.0835 0C103.514 0 105.065 2.2238 104.899 7.44973C104.844 9.17318 105.065 10.8966 105.342 12.6757C105.453 13.2872 105.176 13.6208 104.567 13.6208C103.57 13.6208 102.573 13.6208 101.576 13.6208C100.967 13.6208 100.524 13.2872 100.413 12.6757C100.191 11.2858 100.025 9.84032 99.9696 8.45044C100.247 3.50249 94.8188 3.50249 94.5419 8.45044C94.7081 15.6778 98.1973 22.9051 98.3635 30.1325C98.0866 35.0805 103.514 35.0805 103.791 30.1325C103.736 28.9094 103.625 27.6863 103.459 26.4632C103.348 25.8517 103.625 25.5181 104.29 25.5181C105.287 25.5181 106.284 25.5181 107.28 25.5181C107.89 25.5181 108.333 25.8517 108.388 26.4632C108.554 27.8531 108.72 29.2986 108.72 30.744Z" fill="#FFCE00"/>
<path d="M114.647 37.8601C114.038 37.8601 113.816 37.5265 114.038 36.9149C117.693 26.4075 110.05 15.9 111.324 5.33697C110.105 5.33697 108.887 5.33697 107.668 5.33697C107.059 5.33697 106.727 5.0034 106.837 4.39186C107.004 3.44674 107.225 2.55722 107.557 1.61211C107.779 1.00056 108.277 0.666992 108.887 0.666992C112.93 0.666992 117.028 0.666992 121.071 0.666992C121.681 0.666992 121.902 1.00056 121.681 1.61211C121.348 2.55722 121.127 3.44674 120.961 4.39186C120.85 5.0034 120.462 5.33697 119.853 5.33697C118.634 5.33697 117.416 5.33697 116.198 5.33697C114.924 15.8444 122.567 26.3519 118.911 36.9149C118.69 37.5265 118.191 37.8601 117.582 37.8601C116.641 37.8601 115.644 37.8601 114.647 37.8601Z" fill="#FFCE00"/>
<path d="M126.278 37.8601C125.668 37.8601 125.447 37.5265 125.668 36.9149C129.767 25.1288 119.742 13.3983 123.841 1.61211C124.062 1.00056 124.561 0.666992 125.17 0.666992C126.167 0.666992 127.164 0.666992 128.161 0.666992C128.77 0.666992 128.991 1.00056 128.77 1.61211C124.671 13.3983 134.696 25.1288 130.598 36.9149C130.376 37.5265 129.878 37.8601 129.268 37.8601C128.271 37.8601 127.275 37.8601 126.278 37.8601Z" fill="#FFCE00"/>
<path d="M130.487 7.7833C130.542 2.55737 135.361 0 140.068 0C145.053 0 145.829 2.55737 145.773 7.7833C145.773 15.4554 149.65 23.0719 149.595 30.744C149.539 35.97 144.721 38.5273 140.345 38.5273C135.748 38.5273 134.253 35.97 134.308 30.744C134.308 23.0719 130.431 15.4554 130.487 7.7833ZM140.844 8.39485C141.121 3.44689 135.693 3.44689 135.416 8.39485C135.582 15.6222 139.072 22.8496 139.238 30.0769C138.961 35.0249 144.388 35.0249 144.665 30.0769C144.499 22.8496 141.01 15.6222 140.844 8.39485Z" fill="#FFCE00"/>
<path d="M163.219 37.8605C162.666 37.8605 162.444 37.5825 162.444 37.0265C163.219 29.0209 157.404 21.0152 153.859 13.0095C155.299 20.9596 159.01 28.9097 156.296 36.8598C156.075 37.4713 155.576 37.8049 154.967 37.8049C153.97 37.8049 152.973 37.8049 151.976 37.8049C151.367 37.8049 151.145 37.4713 151.367 36.8598C155.466 25.0736 145.441 13.3431 149.539 1.55693C149.761 0.945387 150.259 0.611816 150.869 0.611816C152.309 0.611816 153.749 0.611816 155.244 0.611816C155.798 0.611816 156.019 0.889791 156.019 1.44574C155.299 9.61821 161.392 17.7351 164.936 25.9075C163.552 17.7907 159.675 9.6738 162.444 1.61253C162.666 1.00098 163.164 0.667412 163.773 0.667412C164.77 0.667412 165.767 0.667412 166.764 0.667412C167.373 0.667412 167.595 1.00098 167.373 1.61253C163.275 13.3987 173.299 25.1292 169.201 36.9154C168.979 37.5269 168.481 37.8605 167.872 37.8605C166.266 37.8605 164.77 37.8605 163.219 37.8605Z" fill="#FFCE00"/>
</svg>
