<svg width="49" height="50" viewBox="0 0 49 50"  xmlns="http://www.w3.org/2000/svg">
<path d="M12.0221 14.3299C11.8512 13.6515 11.5378 12.9732 11.082 12.3231C10.2843 11.1925 9.11628 10.3728 7.57791 9.80754C8.11919 9.29878 8.48953 8.84654 8.71744 8.39431C8.94535 7.97034 9.0593 7.46158 9.0593 6.89629C9.0593 6.67017 9.0593 6.44405 9.0593 6.2462C9.0593 5.73744 9.03081 5.28521 9.00233 4.91777C8.97384 4.55033 8.80291 4.21115 8.51802 3.92851C8.23314 3.64586 7.89128 3.50454 7.54942 3.47628C7.20756 3.44801 6.80872 3.44801 6.38139 3.47628C4.81453 3.56107 3.24767 3.6176 1.65233 3.64586C1.11105 3.64586 0.541279 3.64586 0 3.64586C0 10.9664 0 18.2021 0 25.4378C0 25.5226 0 25.5792 0 25.664C0.0284884 25.664 0.113953 25.664 0.256395 25.664C0.398837 25.664 0.598256 25.664 0.826163 25.664C1.25349 25.664 1.76628 25.6357 2.39302 25.5792C3.01977 25.5226 3.73198 25.4096 4.47267 25.2117C5.21337 25.0421 5.98256 24.7595 6.75174 24.4203C7.52093 24.0811 8.29012 23.6289 8.97384 23.0636C9.68605 22.4983 10.3128 21.8482 10.8541 21.0568C11.3953 20.2654 11.8227 19.3327 12.1076 18.2869C12.1076 18.2586 12.1076 18.2586 12.1076 18.2304C12.136 18.1738 12.1645 17.976 12.2215 17.6086C12.2785 17.2411 12.307 16.7606 12.2785 16.1953C12.307 15.6583 12.193 15.0082 12.0221 14.3299ZM2.73488 6.41579C3.87442 6.38753 5.01395 6.331 6.15349 6.27447C6.21046 6.27447 6.26744 6.27447 6.32442 6.27447C6.32442 6.331 6.32442 6.38753 6.32442 6.44405C6.32442 6.67017 6.32442 6.89629 6.32442 7.1224C6.32442 7.29199 6.15349 7.51811 5.78314 7.85728C5.44128 8.19646 4.92849 8.62043 4.24477 9.12919V9.15745C3.98837 9.3553 3.70349 9.58142 3.44709 9.77927C3.1907 9.97712 2.96279 10.1467 2.7064 10.3446C2.73488 9.01613 2.73488 7.71596 2.73488 6.41579ZM9.5436 17.3259C9.51512 17.5803 9.48663 17.7216 9.48663 17.7781C9.23023 18.6261 8.85988 19.361 8.34709 19.9545C7.8343 20.5481 7.26453 21.0286 6.63779 21.4243C6.01105 21.82 5.35581 22.1309 4.67209 22.3287C3.98837 22.5266 3.33314 22.6962 2.76337 22.781C2.76337 19.7849 2.76337 16.7606 2.76337 13.7646C3.01977 13.5667 3.27616 13.3971 3.50407 13.1993C3.56105 13.171 3.58953 13.1145 3.64651 13.0862C3.675 13.0862 3.675 13.0862 3.675 13.058C3.90291 12.8884 4.10233 12.7188 4.33023 12.5492C4.55814 12.3513 4.78605 12.1818 5.01395 11.9839C5.89709 12.1535 6.66628 12.4079 7.29302 12.7188C7.91977 13.058 8.43256 13.4819 8.80291 13.9907C9.08779 14.3864 9.28721 14.7821 9.40116 15.2061C9.51512 15.63 9.57209 16.0257 9.60058 16.3932C9.57209 16.7889 9.57209 17.0715 9.5436 17.3259Z" fill="#EB006A"/>
<path d="M46.2081 0.0282646C46.2081 2.85472 46.2081 5.65291 46.2081 8.47937C45.7238 7.91408 45.3535 7.51837 45.0686 7.26399C44.6413 6.84003 44.2139 6.50085 43.7581 6.24647C43.3308 5.96382 42.9035 5.70944 42.5046 5.48333C42.1058 5.25721 41.7354 5.03109 41.4221 4.86151C41.1087 4.66365 40.8523 4.43754 40.6244 4.18316C40.425 3.92877 40.2541 3.61786 40.1401 3.27869C40.0261 2.93952 39.9692 2.48728 39.9692 1.95026C39.9692 1.41323 39.9692 0.876202 39.9692 0.339175C39.0291 0.395704 38.1174 0.480498 37.1773 0.537027C37.1773 7.88581 37.1773 15.2063 37.1773 22.5551C38.1174 22.4703 39.0291 22.4138 39.9692 22.3573C39.9692 17.3544 39.9692 12.3234 39.9692 7.32052C40.1401 7.43358 40.311 7.51837 40.482 7.63143C40.6529 7.71623 40.8238 7.82929 41.0232 7.91408C41.3936 8.1402 41.7639 8.33805 42.1058 8.56416C42.4477 8.79028 42.761 9.0164 43.0744 9.29904C43.2168 9.4121 43.4447 9.66648 43.7866 10.0622C44.1285 10.4579 44.4703 10.9384 44.8407 11.5037C45.1825 12.0972 45.4959 12.7473 45.7808 13.5105C46.0657 14.2736 46.1796 15.0933 46.1796 15.9695C46.1796 19.6156 46.1796 23.29 46.1796 26.9361C47.1198 26.9079 48.0314 26.9079 48.9715 26.9079C48.9715 17.948 48.9715 8.95987 48.9715 0C48.0884 0 47.1482 0 46.2081 0.0282646Z" fill="#EB006A"/>
<path d="M12.9622 49.3501C13.9023 49.2653 14.814 49.1805 15.7541 49.0957C15.7541 41.7469 15.7541 34.3982 15.7541 27.0776C14.814 27.1624 13.9023 27.2472 12.9622 27.332C12.9622 34.6808 12.9622 42.0013 12.9622 49.3501Z" fill="#EB006A"/>
<path d="M25.725 34.4266C25.2407 33.9179 24.8703 33.5222 24.5855 33.296C24.1581 32.9286 23.7308 32.6177 23.275 32.3633C22.8477 32.1089 22.4203 31.8828 22.0215 31.685C21.6227 31.4871 21.2523 31.2893 20.939 31.1197C20.6256 30.9501 20.3692 30.724 20.1413 30.4978C19.9419 30.2435 19.7709 29.9608 19.657 29.6216C19.543 29.2825 19.486 28.8302 19.486 28.2932C19.486 27.7562 19.486 27.2192 19.486 26.6821C18.5459 26.7952 17.6343 26.88 16.6942 26.9648C16.6942 34.3136 16.6942 41.6623 16.6942 48.9829C17.6343 48.8981 18.5459 48.785 19.486 48.7002C19.486 43.6974 19.486 38.6663 19.486 33.6635C19.657 33.7765 19.8279 33.8613 19.9988 33.9461C20.1698 34.0309 20.3407 34.1157 20.5401 34.2288C20.9105 34.4266 21.2808 34.6245 21.6227 34.8223C21.9645 35.0202 22.3064 35.2463 22.5913 35.5007C22.7337 35.6137 22.9616 35.8681 23.3035 36.2073C23.6453 36.5747 23.9872 37.027 24.3576 37.564C24.6994 38.1293 25.0413 38.7794 25.2977 39.5142C25.5826 40.2491 25.6965 41.0688 25.6965 41.945C25.6965 43.98 25.6965 45.9868 25.6965 48.0219C26.6366 47.9088 27.5483 47.824 28.4884 47.711C28.4884 41.8319 28.4884 35.9812 28.4884 30.1021C27.5483 30.2152 26.6366 30.3 25.6965 30.4131C25.725 31.7415 25.725 33.0982 25.725 34.4266Z" fill="#EB006A"/>
<path d="M40.7384 31.0065C40.7384 31.8827 40.7384 32.7589 40.7384 33.6351C40.7384 36.7443 40.7384 39.8534 40.7384 42.9907C39.6273 42.6233 38.6302 42.1993 37.7471 41.7188C36.8924 41.2383 36.1232 40.7013 35.4965 40.0795C34.8697 39.4577 34.357 38.7793 33.9581 37.9879C33.5593 37.2247 33.2744 36.3485 33.075 35.3876C32.961 34.8223 32.904 34.2287 32.9325 33.5786C32.961 32.9285 33.0465 32.2784 33.2459 31.6566C33.4453 31.0348 33.7587 30.4413 34.1575 29.8477C34.5849 29.2824 35.1261 28.7736 35.8099 28.3779C36.2372 28.1236 36.636 27.9257 37.0349 27.7844C37.4337 27.6431 37.861 27.5017 38.2884 27.4169C38.7157 27.3321 39.2 27.2756 39.7128 27.2191C40.2256 27.1626 40.7953 27.1343 41.4506 27.106C41.6215 27.106 41.7639 27.0778 41.9349 27.0778C41.9349 26.2016 41.9349 25.3254 41.9349 24.4209C41.7639 24.4209 41.6215 24.4492 41.4506 24.4492C40.7668 24.4774 40.1401 24.534 39.5418 24.5905C38.9436 24.647 38.3738 24.7318 37.8325 24.8449C37.2913 24.9579 36.7215 25.1275 36.2087 25.3254C35.6674 25.5232 35.1261 25.8059 34.5564 26.1168C33.7017 26.6255 32.9895 27.2474 32.3628 27.9822C31.736 28.7171 31.2517 29.5085 30.9099 30.3847C30.5395 31.2609 30.3116 32.1937 30.2261 33.1547C30.1407 34.1439 30.1977 35.1332 30.3971 36.1224C30.7674 37.9314 31.4227 39.4294 32.3343 40.6448C33.2459 41.8601 34.3285 42.8494 35.5535 43.6125C36.7785 44.3757 38.0604 44.9692 39.4279 45.3932C40.7953 45.8172 42.1343 46.1281 43.4163 46.3259C43.4163 45.4215 43.4163 44.517 43.4163 43.6125C43.4163 40.1925 43.4163 36.8008 43.4163 33.3808C45.268 33.296 47.1197 33.2394 48.9715 33.2394C48.9715 32.3632 48.9715 31.487 48.9715 30.6108C47.1197 30.6108 45.268 30.6674 43.4163 30.7522C42.5331 30.9218 41.6215 30.95 40.7384 31.0065Z" fill="#EB006A"/>
<path d="M4.1593 27.8969C2.82035 27.9534 1.45291 27.9817 0.113953 27.9817C0.113953 35.3305 0.113953 42.6793 0.113953 49.9998C7.12209 49.0105 12.3355 42.4814 12.3355 35.5001C12.3355 31.006 8.68895 27.7273 4.1593 27.8969ZM3.13372 45.958C3.13372 40.9551 3.13372 35.924 3.13372 30.9212C3.47558 30.9212 3.81744 30.893 4.18779 30.893C7.03662 30.7799 9.34418 32.928 9.34418 35.7545C9.34418 39.9941 6.83721 44.0077 3.13372 45.958Z" fill="#EB006A"/>
<path d="M19.1442 23.5445C20.7395 27.1059 24.443 29.1126 28.5454 28.6604C28.5454 27.6712 28.5454 26.6819 28.5454 25.6926C25.6396 25.9753 23.0471 24.5903 21.9076 22.0748C20.9959 20.0963 20.1128 18.0895 19.2012 16.0827C19.2866 15.9696 19.4006 15.8283 19.5145 15.687C19.714 15.4043 19.9419 15.0934 20.2268 14.7543C20.5116 14.3586 20.7965 13.9911 21.0814 13.5954C21.7366 12.7192 22.3064 11.9561 22.7622 11.306C23.218 10.6559 23.5884 10.0906 23.8733 9.58185C24.1582 9.07309 24.3576 8.59259 24.5 8.14035C24.614 7.68812 24.6994 7.20762 24.6994 6.6706C24.6994 6.30316 24.6994 5.93572 24.6994 5.56828C24.6994 5.11605 24.6994 4.74861 24.6994 4.4377C24.6994 4.12679 24.6709 3.84414 24.6425 3.58976C24.614 3.33538 24.5285 3.13753 24.443 2.93968C24.3576 2.77009 24.2151 2.6005 24.0727 2.45918C23.7878 2.2048 23.4459 2.06348 23.1041 2.06348C22.7622 2.06348 22.4204 2.06348 22.107 2.12001C21.993 2.12001 21.8791 2.14827 21.7651 2.14827V2.17653C21.7366 2.17653 21.6797 2.17653 21.5657 2.17653C21.5372 2.17653 21.5087 2.17653 21.4802 2.17653C18.6599 2.48744 15.8111 2.79835 12.9907 3.05274C12.9907 3.13753 12.9907 3.22232 12.9907 3.30712H12.9622C12.9622 10.5428 12.9622 17.8068 12.9622 25.0426C13.9023 24.9578 14.814 24.873 15.7541 24.7882C15.7541 23.4032 15.7541 22.0465 15.7541 20.6615C15.982 20.3789 16.2099 20.068 16.4378 19.7853C16.5233 19.6723 16.6372 19.531 16.7227 19.4179C16.8366 19.2483 16.9791 19.0787 17.093 18.9374C17.7483 20.4637 18.4605 22.0182 19.1442 23.5445ZM15.7826 16.3371C15.7541 16.3653 15.7541 16.3653 15.7541 16.3936C15.7541 12.804 15.7541 9.18614 15.7541 5.59654C17.1785 5.45522 18.6314 5.3139 20.0558 5.14431C20.1698 5.14431 20.2837 5.11605 20.3977 5.11605C20.8535 5.05952 21.3093 5.00299 21.7651 4.97473C21.8221 4.97473 21.8791 4.97473 21.9361 4.94646C21.9361 5.28564 21.9361 5.59655 21.9361 5.93572C21.9361 6.30316 21.9361 6.6706 21.9361 7.0663C21.9361 7.34895 21.9076 7.63159 21.8221 7.88597C21.7366 8.14035 21.5942 8.45126 21.3663 8.79044C21.1384 9.15788 20.8535 9.58185 20.4547 10.1189C20.0558 10.6559 19.5715 11.3342 18.9448 12.1539C18.6599 12.5496 18.375 12.9171 18.0901 13.3128C17.5488 14.0194 17.15 14.5847 16.8366 15.0086C16.5233 15.4043 16.2954 15.7153 16.1529 15.9131C15.982 16.0544 15.868 16.224 15.7826 16.3371Z" fill="#EB006A"/>
<path d="M27.1779 1.55491C27.1779 2.48764 27.1779 3.39211 27.1779 4.32484C28.2605 4.21178 29.3146 4.09872 30.3971 3.98566C30.3401 4.29657 30.2547 4.57922 30.1977 4.89013C30.1122 5.20104 29.9983 5.51195 29.8274 5.87939C29.457 6.69906 29.0297 7.51873 28.5454 8.31014C28.0611 9.10155 27.5483 9.89296 27.0355 10.7126C26.3803 11.7584 25.725 12.8042 25.0983 13.8783C24.4715 14.9523 23.9303 16.0546 23.5029 17.27C23.3035 17.8636 23.1326 18.4289 23.0186 18.9941C22.9617 19.2485 22.9047 19.5312 22.8762 19.7855C23.8163 19.6725 24.7564 19.5594 25.6965 19.4746C25.782 18.9659 25.9244 18.4571 26.1239 17.9484C26.4087 17.1287 26.7791 16.3655 27.1779 15.6024C27.2634 15.6589 27.3489 15.6872 27.4343 15.7437C27.6053 15.8285 27.7762 15.9133 27.9756 16.0264C28.346 16.2242 28.7163 16.4221 29.0582 16.6199C29.4 16.8178 29.7134 17.0439 30.0268 17.2983C30.1692 17.4113 30.3971 17.6657 30.739 18.0049C31.0808 18.3723 31.4227 18.8246 31.7931 19.3898C32.1349 19.9551 32.4483 20.6052 32.7332 21.3401C32.9041 21.8206 33.0181 22.3576 33.1035 22.8947C34.0436 22.8099 34.9553 22.7251 35.8954 22.6403C35.8954 15.3197 35.8954 7.99923 35.8954 0.678711C32.9326 0.904827 30.0553 1.21574 27.1779 1.55491ZM31.9355 15.1219C31.5082 14.7545 31.0808 14.4153 30.625 14.1892C30.1977 13.9348 29.7704 13.7087 29.3715 13.5108C29.0867 13.3695 28.8587 13.2282 28.6024 13.1151C28.8303 12.7477 29.0582 12.4085 29.2861 12.0411C29.8558 11.1931 30.3971 10.3452 30.9384 9.46899C31.4797 8.62105 31.9355 7.68832 32.3343 6.72733L32.3628 6.69906C32.5053 6.35989 32.6477 6.02071 32.7332 5.68154C32.8471 5.34236 32.9326 5.03145 32.9896 4.74881C32.9896 8.56452 32.9896 12.3802 32.9896 16.2242C32.5622 15.6872 32.2204 15.348 31.9355 15.1219Z" fill="#EB006A"/>
</svg>
