<svg width="23" height="23" viewBox="0 0 23 23"  xmlns="http://www.w3.org/2000/svg">
<path fill-rule="evenodd" clip-rule="evenodd" d="M11.5175 0C5.14612 0 0 5.1383 0 11.5C0 17.8617 5.14612 23 11.5175 23C17.8889 23 23 17.8267 23 11.5C23 5.17325 17.8539 0 11.5175 0ZM21.0046 10.9407C18.519 10.5213 16.2785 10.5213 14.1781 10.8708C13.968 10.3465 13.688 9.78723 13.4429 9.26292C15.6484 8.31915 17.4338 6.99088 18.7641 5.34802C20.0244 6.92097 20.8295 8.84346 21.0046 10.9407ZM17.2938 3.9848C16.1385 5.45289 14.5632 6.64134 12.4977 7.5152C11.5175 5.73252 10.3973 3.9848 9.13699 2.30699C9.87215 2.09726 10.6423 1.9924 11.4475 1.9924C13.688 1.9924 15.6834 2.72644 17.2938 3.9848ZM7.21157 3.04103C8.47184 4.71884 9.62709 6.43161 10.6073 8.17933C8.2968 8.84346 5.49619 9.22796 2.27549 9.22796C2.94064 6.53647 4.76104 4.26444 7.21157 3.04103ZM1.99543 11.5V11.2553C5.70624 11.2553 8.89193 10.8359 11.5525 9.99696C11.7626 10.4514 11.9726 10.9058 12.1826 11.3602C8.96195 12.3739 6.30137 14.4362 4.20091 17.5821C2.83562 15.9392 2.03044 13.807 1.99543 11.5ZM5.67123 18.9802C7.56164 16.0441 9.97717 14.0866 12.9528 13.2128C13.828 15.5198 14.4932 17.8967 14.9132 20.3435C11.6925 21.6018 8.22679 21.0076 5.67123 18.9802ZM16.8037 19.3997C16.3836 17.1277 15.7534 14.9605 14.9482 12.7933C16.7336 12.5486 18.7291 12.5836 20.8995 13.003C20.4795 15.6596 18.9391 17.9666 16.8037 19.3997Z" fill="#A3A3A3"/>
</svg>
