<svg width="24" height="24" viewBox="0 0 24 24"  xmlns="http://www.w3.org/2000/svg">
<path fill-rule="evenodd" clip-rule="evenodd" d="M12 2.15198C15.2097 2.15198 15.5745 2.15198 16.8511 2.22492C20.0973 2.37082 21.6292 3.90274 21.7751 7.14894C21.8116 8.42553 21.848 8.79027 21.848 12C21.848 15.2097 21.848 15.5745 21.7751 16.8511C21.6292 20.0608 20.0973 21.6292 16.8511 21.7751C15.5745 21.8116 15.2097 21.848 12 21.848C8.79027 21.848 8.42553 21.848 7.14894 21.7751C3.90274 21.5927 2.37082 20.0608 2.22492 16.8511C2.18845 15.5745 2.15198 15.2097 2.15198 12C2.15198 8.79027 2.15198 8.42553 2.22492 7.14894C2.37082 3.93921 3.90274 2.37082 7.14894 2.22492C8.42553 2.18845 8.79027 2.15198 12 2.15198ZM12 0C8.7538 0 8.31611 0 7.03951 0.0729483C2.69909 0.255319 0.291793 2.69909 0.0729483 7.03951C0 8.35258 0 8.7538 0 12C0 15.2462 0 15.6839 0.0729483 16.924C0.255319 21.3009 2.69909 23.7082 7.03951 23.927C8.31611 23.9635 8.71733 24 12 24C15.2827 24 15.6839 24 16.9605 23.927C21.3009 23.7447 23.7447 21.3009 23.927 16.9605C23.9635 15.6839 24 15.2827 24 12C24 8.71733 24 8.31611 23.927 7.03951C23.7447 2.69909 21.3009 0.291793 16.924 0.0729483C15.6474 0 15.2462 0 12 0ZM12 5.83587C8.6079 5.83587 5.83587 8.57143 5.83587 12C5.83587 15.3921 8.57143 18.1641 12 18.1641C15.3921 18.1641 18.1641 15.4286 18.1641 12C18.1641 8.6079 15.3921 5.83587 12 5.83587ZM12 16.0122C9.77508 16.0122 7.98784 14.2249 7.98784 12C7.98784 9.77508 9.77508 7.98784 12 7.98784C14.2249 7.98784 16.0122 9.77508 16.0122 12C16.0122 14.2249 14.1884 16.0122 12 16.0122ZM18.4195 4.15805C17.617 4.15805 16.9605 4.81459 16.9605 5.61702C16.9605 6.41945 17.617 7.07599 18.4195 7.07599C19.2219 7.07599 19.8784 6.41945 19.8784 5.61702C19.8784 4.81459 19.1854 4.15805 18.4195 4.15805Z" fill="#A3A3A3"/>
</svg>
