<svg width="21" height="21" viewBox="0 0 21 21"  xmlns="http://www.w3.org/2000/svg">
<path d="M2.5375 0C1.1375 0 0 1.1375 0 2.5375C0 3.9375 1.1375 5.075 2.5375 5.075C3.9375 5.075 5.075 3.9375 5.075 2.5375C5.075 1.1375 3.9375 0 2.5375 0ZM0.35 21H4.68125V6.95625H0.35V21ZM15.75 6.60625C12.6 6.60625 11.55 8.96875 11.55 8.96875V6.95625H7.35V20.9563H11.725C11.725 20.9563 11.725 14.7438 11.725 13.3875C11.725 12.0312 12.5125 10.4125 14.2188 10.4125C15.5312 10.4125 16.625 11.0688 16.625 13.3875C16.625 14.7438 16.625 20.9563 16.625 20.9563H21V14.9625C21 14.9625 21 13.825 21 13.3C21 7.48125 18.2875 6.60625 15.75 6.60625Z" fill="#A3A3A3"/>
</svg>
