<svg width="120" height="50" viewBox="0 0 120 50" fill="none" xmlns="http://www.w3.org/2000/svg">
<path d="M10.2089 5.0598V5.84177C10.2089 8.09568 9.52526 9.52162 8.02127 10.2576C9.84429 10.9936 10.5735 12.6495 10.5735 14.9494V16.7433C10.5735 20.1472 8.79605 21.9411 5.3779 21.9411H0V0H5.15002C8.7049 0 10.2089 1.65593 10.2089 5.0598ZM3.41815 3.12788V8.92364H4.73984C6.01595 8.92364 6.79073 8.37167 6.79073 6.62373V5.38178C6.79073 3.81785 6.24383 3.12788 5.05887 3.12788H3.41815ZM3.41815 12.0515V18.7673H5.3779C6.51728 18.7673 7.15534 18.2153 7.15534 16.6053V14.7194C7.15534 12.6955 6.51728 12.0515 4.96772 12.0515H3.41815Z" fill="#FF1200"/>
<path d="M29.5784 21.9411H26.1147L25.5678 17.9393H21.3748L20.7824 21.8951H17.6377L21.1014 0H26.1147L29.5784 21.9411ZM21.785 14.9494H25.0665L23.4257 3.86385L21.785 14.9494Z" fill="#FF1200"/>
<path d="M44.3449 21.9411C44.1626 21.3891 44.0258 21.0212 44.0258 19.2272V15.7774C44.0258 13.7535 43.3422 12.9715 41.7926 12.9715H40.6077V21.8951H37.1895V0H42.3395C45.8944 0 47.3984 1.65593 47.3984 5.0598V6.76173C47.3984 9.01564 46.6692 10.4876 45.1652 11.2236C46.8515 11.9595 47.444 13.6155 47.444 15.8694V19.2732C47.444 20.3312 47.4896 21.1132 47.8086 21.9411H44.3449ZM40.6077 3.12788V9.84361H41.9294C43.2055 9.84361 43.9802 9.29163 43.9802 7.5437V5.38178C43.9802 3.81785 43.4333 3.12788 42.2484 3.12788H40.6077Z" fill="#FF1200"/>
<path d="M54.7816 0H65.3095V3.12788H61.7546V21.9411H58.3365V3.12788H54.7816V0Z" fill="#FF1200"/>
<path d="M76.3388 9.24563H81.033V12.3735H76.3388V18.8132H82.218V21.9411H72.9206V0H82.218V3.12788H76.3388V9.24563Z" fill="#FF1200"/>
<path d="M97.2123 21.9411C97.03 21.3891 96.8933 21.0212 96.8933 19.2272V15.7774C96.8933 13.7535 96.2096 12.9715 94.6601 12.9715H93.4751V21.8951H90.057V0H95.207C98.7619 0 100.266 1.65593 100.266 5.0598V6.76173C100.266 9.01564 99.5367 10.4876 98.0327 11.2236C99.719 11.9595 100.311 13.6155 100.311 15.8694V19.2732C100.311 20.3312 100.357 21.1132 100.676 21.9411H97.2123ZM93.4751 3.12788V9.84361H94.7968C96.0729 9.84361 96.8477 9.29163 96.8477 7.5437V5.38178C96.8477 3.81785 96.3008 3.12788 95.1158 3.12788H93.4751Z" fill="#FF1200"/>
<path fill-rule="evenodd" clip-rule="evenodd" d="M55.9666 16.9273C54.2347 16.9273 47.6718 24.609 45.7121 26.2649C46.0311 25.483 47.1705 24.011 47.3072 23.873C47.444 23.735 47.444 23.4591 47.1249 23.4591C46.7603 23.4591 45.8944 24.103 44.4816 24.517C45.8488 22.7691 46.8971 21.0212 46.8971 19.8252C46.8971 19.3652 46.7603 18.7213 46.0311 18.7213C43.251 18.7213 40.3342 21.6191 39.7417 23.781C39.4683 24.057 38.9669 24.563 38.5112 25.299C38.5112 25.299 38.5112 25.299 38.4656 25.345C37.9187 25.897 30.4899 32.3367 25.7957 32.5207C26.5249 28.3809 36.9616 15.0414 42.1572 14.7654C41.9749 15.8234 40.7444 17.2493 39.4683 18.5373C38.5568 18.8592 36.8249 20.2852 35.8222 21.2971C35.4576 21.6191 34.7284 23.4591 35.6399 23.4591C36.1868 23.4591 43.251 17.8933 43.251 14.4434C43.251 13.7994 42.8409 12.9715 41.747 12.9715C35.2753 12.9715 24.474 24.977 24.474 33.2107C24.474 34.3606 25.112 35.0966 26.0235 35.0966C29.1682 35.0966 34.9107 30.1288 37.5997 27.4149C37.5085 27.7829 37.463 28.1969 37.463 28.6568C37.463 29.3928 37.782 29.9448 38.3745 29.9448C39.1037 29.9448 41.3824 28.0589 43.3878 25.759C44.117 25.667 44.6639 25.483 45.074 25.299C44.0258 26.7709 42.2939 29.7148 43.5701 29.7148C44.436 29.7148 48.1732 25.483 50.8165 22.4011C49.905 24.057 49.0847 26.127 49.0847 28.1049C49.0847 30.1748 50.0873 31.4627 50.0873 30.7268C50.0873 26.3569 53.0042 21.2051 56.0121 18.2153C56.3312 17.8933 56.5135 16.9273 55.9666 16.9273ZM45.6665 20.6532C45.5754 21.5271 43.9802 23.2751 42.2939 24.839C42.1572 24.839 42.0661 24.885 41.9293 24.885C39.1948 24.885 42.613 20.8372 45.6665 20.6532ZM38.6935 27.5989C38.7391 26.9549 39.286 25.897 39.7873 25.115C39.9696 25.529 40.4254 25.805 41.109 25.897C40.1063 26.7709 39.1948 27.4149 38.6935 27.5989Z" fill="black"/>
<path fill-rule="evenodd" clip-rule="evenodd" d="M68.3631 20.0092C67.3148 20.0092 63.9423 22.4471 61.9369 24.195C62.3471 23.6431 62.8029 22.9991 63.3498 22.3551C68.5909 19.2732 73.6498 14.4894 73.6498 12.8795C73.6498 12.4195 73.3764 12.0055 72.9662 12.0055C71.4622 12.0055 64.7626 17.8013 61.5723 22.3091C60.9343 22.6311 60.3418 22.9071 59.7493 23.1371C60.6153 21.8491 61.2533 20.6072 61.2533 19.6412C61.2533 19.1812 61.1166 18.5373 60.3874 18.5373C57.2882 18.5373 53.8245 21.8491 53.8245 23.781C53.1865 24.655 52.4117 26.035 52.4117 27.8289C52.4117 28.5649 52.7307 29.1168 53.3232 29.1168C54.1435 29.1168 56.6502 26.9549 58.6555 24.563C59.2936 24.379 59.9316 24.103 60.6153 23.827C60.1595 24.655 59.886 25.437 59.886 25.989C59.886 26.6329 59.9772 27.1849 60.3874 27.1849C60.5697 27.1849 60.9799 26.7709 61.2989 26.3569C62.6206 24.471 66.0843 21.8491 67.8162 21.5271C67.4971 23.1831 63.3498 27.2769 61.6635 28.1969C61.8458 27.4609 62.4838 26.6329 62.256 26.6329C61.9369 26.6329 60.6153 27.9669 60.6153 28.6109C60.6153 29.4388 60.9799 30.4048 61.6179 30.4048C62.9396 30.4048 69.229 23.4591 69.229 20.7452C69.1834 20.4232 68.91 20.0092 68.3631 20.0092ZM60.0228 20.3312C59.7493 21.1132 58.6099 22.5391 57.2427 23.827C56.7869 23.919 56.3312 24.011 55.9666 24.011C53.232 24.011 57.1059 20.5612 60.0228 20.3312ZM53.5511 26.8169C53.5966 26.3109 53.9157 25.529 54.2803 24.747C54.5993 24.977 55.0551 25.115 55.7387 25.115C55.8298 25.115 55.921 25.115 55.9666 25.115C55.0551 25.851 54.1891 26.4949 53.5511 26.8169ZM71.9179 14.4434C70.414 16.3293 67.406 18.8132 64.9449 20.4692C67.5883 17.5253 70.733 14.6274 71.9179 14.4434Z" fill="black"/>
<path fill-rule="evenodd" clip-rule="evenodd" d="M102.043 17.9393C96.3464 17.9393 82.9928 26.6329 81.1242 25.759C81.4432 24.333 82.9928 22.6771 83.5853 22.0331C84.041 21.5731 82.9928 20.5152 82.5826 20.9292C82.0813 21.4351 78.8454 23.6431 77.2047 24.517C78.1618 23.2291 80.1671 21.2052 80.6684 20.6532C81.1698 20.1472 80.395 18.9972 79.7113 19.6872C79.2556 20.1472 73.2396 25.345 69.6392 25.667C69.6392 25.253 69.8671 24.747 70.2317 24.149C71.5078 23.827 74.6981 21.8491 75.7463 20.7912C76.8857 19.6412 76.9313 17.7553 75.7463 17.7553C73.6498 17.7553 68.6365 22.2171 68.6365 25.575C68.6365 26.7709 69.0923 27.5069 69.8215 27.5069C71.0976 27.5069 74.1967 25.207 76.5667 23.3671C75.6096 24.931 75.1082 26.4029 76.1109 26.4029C76.8857 26.4029 79.4379 24.379 81.033 22.9991C80.5773 23.735 80.1671 24.517 80.1671 25.161C80.1671 26.173 80.8507 27.2309 81.6255 27.2309C84.6791 27.2309 97.4402 18.1233 103.775 20.6072C104.459 20.0552 104.869 17.9393 102.043 17.9393ZM75.7919 19.2272C75.4273 20.3772 73.0118 21.9411 71.4166 22.6771C72.8295 21.0212 74.6981 19.4112 75.7919 19.2272Z" fill="black"/>
<path fill-rule="evenodd" clip-rule="evenodd" d="M81.5344 18.7673C82.4915 18.7673 84.2689 18.6293 85.3627 17.6633C85.6817 17.3413 85.3627 17.2033 84.4056 17.2953C83.3574 17.4333 82.1269 17.4333 81.5799 17.2953C80.8507 17.0193 80.5773 18.7673 81.5344 18.7673Z" fill="black"/>
<path d="M24.793 27.5529C28.12 27.5529 29.8063 29.5768 29.8063 33.0727V33.7627H26.5705V32.8427C26.5705 31.2788 25.9324 30.6808 24.8842 30.6808C23.7904 30.6808 23.1979 31.2788 23.1979 32.8427C23.1979 37.3505 29.8519 38.1785 29.8519 44.4802C29.8519 47.9761 28.12 50 24.7474 50C21.3749 50 19.643 47.9761 19.643 44.4802V43.1463H22.8789V44.7102C22.8789 46.2742 23.5625 46.8261 24.6563 46.8261C25.7501 46.8261 26.4337 46.2742 26.4337 44.7102C26.4337 40.2024 19.7797 39.3744 19.7797 33.0727C19.7797 29.5308 21.466 27.5529 24.793 27.5529Z" fill="#FF1200"/>
<path d="M38.0099 27.7829H48.5378V30.9108H44.9829V49.724H41.5648V30.9108H38.0099V27.7829Z" fill="#FF1200"/>
<path d="M61.1166 27.7829V44.7102C61.1166 46.2741 61.8002 46.8261 62.894 46.8261C63.9879 46.8261 64.6715 46.2741 64.6715 44.7102V27.7829H67.9073V44.4802C67.9073 47.9761 66.1755 50 62.8029 50C59.4303 50 57.6985 47.9761 57.6985 44.4802V27.7829H61.1166Z" fill="#FF1200"/>
<path d="M77.7972 27.7829H83.1751C86.5933 27.7829 88.2795 29.7148 88.2795 33.2107V44.2962C88.2795 47.7921 86.5933 49.724 83.1751 49.724H77.7972V27.7829ZM81.2154 30.9108V46.5501H83.1295C84.2233 46.5501 84.8614 45.9982 84.8614 44.4342V33.0727C84.8614 31.5087 84.2233 30.9568 83.1295 30.9568H81.2154V30.9108Z" fill="#FF1200"/>
<path d="M97.1667 27.7829H100.585V49.724H97.1667V27.7829Z" fill="#FF1200"/>
<path d="M109.654 33.0727C109.654 29.5768 111.477 27.5529 114.85 27.5529C118.223 27.5529 120.046 29.5768 120.046 33.0727V44.4802C120.046 47.9761 118.223 50 114.85 50C111.477 50 109.654 47.9761 109.654 44.4802V33.0727ZM113.073 44.6642C113.073 46.2282 113.756 46.8261 114.85 46.8261C115.944 46.8261 116.627 46.2282 116.627 44.6642V32.8427C116.627 31.2788 115.944 30.6808 114.85 30.6808C113.756 30.6808 113.073 31.2788 113.073 32.8427V44.6642Z" fill="#FF1200"/>
</svg>
