<svg width="22" height="18" viewBox="0 0 22 18"  xmlns="http://www.w3.org/2000/svg">
<path fill-rule="evenodd" clip-rule="evenodd" d="M21.9912 4.18448C21.8738 6.2008 20.3869 8.9639 17.4912 12.5111C14.4782 16.1704 11.9739 18 9.89995 18C8.60865 18 7.51301 16.8798 6.65214 14.6395C6.06519 12.5858 5.47823 10.5322 4.89128 8.47849C4.22607 6.23814 3.52172 5.11796 2.77825 5.11796C2.62173 5.11796 2.03477 5.45402 1.05652 6.08878L0 4.85659C1.09565 3.96045 2.15216 3.06431 3.20868 2.16816C4.6565 0.973308 5.75215 0.37588 6.49562 0.301202C8.21735 0.151845 9.27387 1.27202 9.66517 3.62439C10.0956 6.2008 10.3695 7.76905 10.5652 8.40382C11.0347 10.5322 11.6217 11.5777 12.2086 11.5777C12.6782 11.5777 13.3825 10.9055 14.2825 9.52399C15.2217 8.14244 15.6912 7.09694 15.7695 6.3875C15.8869 5.19264 15.4173 4.59521 14.2825 4.59521C13.7738 4.59521 13.226 4.70723 12.6391 4.93127C13.6565 1.5334 15.7304 -0.0721904 18.7825 0.00248805C21.0521 0.0771665 22.1086 1.45872 21.9912 4.18448Z" fill="#A3A3A3"/>
</svg>
