<svg width="30" height="17" viewBox="0 0 30 17"  xmlns="http://www.w3.org/2000/svg">
<path d="M29.9319 15.6886C29.3323 13.8429 25.0848 10.0057 24.8849 9.76286C24.3852 9.18 24.5352 8.88857 24.8849 8.35429C24.8849 8.35429 28.8825 2.96286 29.2823 1.16571C29.4822 0.485714 29.2823 0 28.2829 0H24.9849C24.1354 0 23.7856 0.437143 23.5358 0.874286C23.5358 0.874286 21.8868 4.76 19.4882 7.28571C18.7387 8.01429 18.3889 8.25714 17.9391 8.25714C17.7393 8.25714 17.4394 8.01429 17.4394 7.38286V1.16571C17.4394 0.388571 17.1896 0 16.49 0H11.4431C10.9434 0 10.5936 0.388571 10.5936 0.728571C10.5936 1.50571 11.7929 1.65143 11.8928 3.78857V8.40286C11.8928 9.42286 11.6929 9.61714 11.2932 9.61714C10.1938 9.61714 7.49547 5.73143 5.84646 1.26286C5.54664 0.34 5.24683 0 4.39734 0H1.1493C0.199879 0 0 0.437143 0 0.874286C0 1.7 1.09933 5.82857 5.19686 11.2686C7.89522 14.96 11.7429 17 15.1908 17C17.2895 17 17.5394 16.5629 17.5394 15.7857C17.5394 12.24 17.3395 11.9 18.3889 11.9C18.8886 11.9 19.6881 12.1429 21.6369 13.94C23.8855 16.0286 24.2353 17 25.4846 17H28.7826C29.732 17 30.1817 16.5629 29.9319 15.6886Z" fill="#A3A3A3"/>
</svg>
